<?xml version="1.0" encoding="UTF-8"?>
<svg xmlns="http://www.w3.org/2000/svg" xmlns:xlink="http://www.w3.org/1999/xlink" version="1.1" viewBox="0 0 1200 320">
  <!-- Generator: Adobe Illustrator 30.0.0, SVG Export Plug-In . SVG Version: 2.1.1 Build 123)  -->
  <defs>
    <style>
      .st0, .st1 {
        fill: none;
      }

      .st2 {
        mask: url(#mask);
      }

      .st3 {
        fill: #e5e7eb;
        font-size: 14px;
      }

      .st3, .st4, .st5, .st6, .st7, .st8, .st9, .st10 {
        isolation: isolate;
      }

      .st11 {
        filter: url(#luminosity-invert);
      }

      .st12 {
        fill: #e9edb3;
      }

      .st13 {
        fill: #e3e79d;
      }

      .st14 {
        fill: #152659;
      }

      .st15 {
        fill: #edf2c5;
      }

      .st16, .st17, .st18, .st19, .st20 {
        fill: #00f2f5;
      }

      .st4 {
        font-size: 13px;
      }

      .st4, .st7 {
        fill: #6b7280;
      }

      .st21 {
        fill: url(#linear-gradient2);
      }

      .st22 {
        fill: url(#linear-gradient3);
      }

      .st23 {
        fill: url(#linear-gradient6);
      }

      .st24 {
        fill: url(#linear-gradient4);
      }

      .st25 {
        fill: #e3e79b;
      }

      .st26 {
        fill: #edf2c7;
      }

      .st27 {
        fill: #ebefbc;
      }

      .st28 {
        filter: url(#outer-glow-4);
      }

      .st29 {
        filter: url(#outer-glow-5);
      }

      .st30 {
        fill: #eaeeb8;
      }

      .st31 {
        fill: #e5e9a5;
      }

      .st32 {
        fill: #ecf1c3;
      }

      .st33 {
        letter-spacing: 0em;
      }

      .st33, .st34, .st35, .st36, .st37 {
        font-family: MyriadPro-Regular, 'Myriad Pro';
      }

      .st38 {
        fill: #e4e89f;
      }

      .st39 {
        fill: #eaefb9;
      }

      .st40 {
        fill: #e5e9a3;
      }

      .st41 {
        font-family: AppleBraille-Outline6Dot, 'Apple Braille';
      }

      .st34 {
        letter-spacing: 0em;
      }

      .st35 {
        letter-spacing: 0em;
      }

      .st42 {
        fill: #e8edb1;
      }

      .st43 {
        filter: url(#luminosity-invert1);
      }

      .st44 {
        filter: url(#luminosity-invert5);
      }

      .st45 {
        filter: url(#luminosity-invert4);
      }

      .st46 {
        filter: url(#luminosity-invert3);
      }

      .st47 {
        filter: url(#luminosity-invert7);
      }

      .st48 {
        filter: url(#luminosity-invert2);
      }

      .st49 {
        filter: url(#luminosity-invert6);
      }

      .st50 {
        fill: #e9eeb6;
      }

      .st51 {
        fill: #eef3cb;
      }

      .st52 {
        fill: #eef3c9;
      }

      .st53 {
        fill: #e1e593;
      }

      .st5 {
        fill: #0b1120;
        letter-spacing: .2em;
      }

      .st5, .st7 {
        font-size: 11px;
      }

      .st5, .st8 {
        font-family: SFProText-Medium, 'SF Pro Text';
        font-weight: 500;
      }

      .st54 {
        fill: #e6eaa9;
      }

      .st55 {
        fill: url(#radial-gradient);
      }

      .st56 {
        fill: #e9eeb5;
      }

      .st57 {
        fill: #e7ecaf;
      }

      .st58 {
        fill: #eff4ce;
      }

      .st59 {
        fill: #e2e697;
      }

      .st60 {
        fill: url(#linear-gradient);
      }

      .st61 {
        fill: #e4e9a2;
      }

      .st36 {
        letter-spacing: 0em;
      }

      .st62 {
        fill: #e2e699;
      }

      .st63 {
        fill: #e4e8a1;
      }

      .st64 {
        fill: #e7ebac;
      }

      .st65 {
        fill: #e8ecb0;
      }

      .st66 {
        fill: #e6eaa8;
      }

      .st67 {
        fill: #e6ebaa;
      }

      .st68 {
        mask: url(#mask-2);
      }

      .st69 {
        mask: url(#mask-3);
      }

      .st70 {
        mask: url(#mask-4);
      }

      .st71 {
        mask: url(#mask-5);
      }

      .st72 {
        mask: url(#mask-7);
      }

      .st73 {
        mask: url(#mask-6);
      }

      .st74 {
        mask: url(#mask-1);
      }

      .st75 {
        fill: #ebf0be;
      }

      .st76 {
        clip-path: url(#clippath-1);
      }

      .st77 {
        clip-path: url(#clippath-3);
      }

      .st78 {
        clip-path: url(#clippath-4);
      }

      .st79 {
        clip-path: url(#clippath-2);
      }

      .st80 {
        clip-path: url(#clippath-7);
      }

      .st81 {
        clip-path: url(#clippath-6);
      }

      .st82 {
        fill: #ecf1c1;
      }

      .st8 {
        font-size: 10px;
        letter-spacing: .2em;
      }

      .st8, .st10 {
        fill: #9ca3af;
      }

      .st83 {
        fill: #fde4a9;
      }

      .st84 {
        fill: #e9edb4;
      }

      .st85 {
        fill: #e3e79c;
      }

      .st86 {
        fill: #eef3ca;
      }

      .st87 {
        fill: #ecf0c0;
      }

      .st88 {
        fill: #09808c;
      }

      .st89 {
        fill: #ecf1c4;
      }

      .st90 {
        fill: #eef3cc;
      }

      .st91 {
        fill: #edf2c6;
      }

      .st92 {
        fill: #eaefbb;
      }

      .st93 {
        fill: #e3e79a;
      }

      .st94 {
        fill: #ecf1c2;
      }

      .st95 {
        opacity: .8;
      }

      .st96 {
        fill: #edf2c8;
      }

      .st97 {
        fill: #e6eaa7;
      }

      .st98 {
        fill: #e4e89e;
      }

      .st99 {
        fill: #e1e595;
      }

      .st100 {
        fill: #e8edb2;
      }

      .st101 {
        fill: #e5eaa6;
      }

      .st102 {
        fill: #e1e594;
      }

      .st103 {
        fill: #eff4cd;
      }

      .st104 {
        fill: #e5e9a4;
      }

      .st105 {
        fill: #e9eeb7;
      }

      .st106 {
        fill: #e4e8a0;
      }

      .st107 {
        fill: #eff4cf;
      }

      .st108 {
        fill: #e7ebab;
      }

      .st109 {
        fill: #e2e698;
      }

      .st110 {
        fill: #e8ecb1;
      }

      .st111 {
        fill: #e7ebad;
      }

      .st112 {
        fill: #eaefba;
      }

      .st113 {
        fill: #e7ecae;
      }

      .st114 {
        fill: #020617;
      }

      .st114, .st1 {
        stroke: #1f2937;
      }

      .st17 {
        filter: url(#outer-glow-1);
      }

      .st18 {
        filter: url(#outer-glow-2);
      }

      .st19 {
        filter: url(#outer-glow-3);
      }

      .st9 {
        fill: url(#linear-gradient1);
        opacity: .9;
      }

      .st20 {
        display: none;
      }

      .st10 {
        font-size: 16px;
      }

      .st115 {
        fill: #ebf0bf;
      }

      .st116 {
        fill: #00265a;
      }

      .st117 {
        fill: #ebf0bd;
      }

      .st118 {
        clip-path: url(#clippath);
      }

      .st119 {
        fill: #e2e696;
      }

      .st120 {
        mix-blend-mode: screen;
        opacity: .7;
      }

      .st121 {
        clip-path: url(#clippath-5);
        fill: url(#linear-gradient5);
      }

      .st1 {
        stroke-opacity: .9;
        stroke-width: 1.5px;
      }
    </style>
    <linearGradient id="linear-gradient" x1="0" y1="322" x2="1200" y2="2" gradientTransform="translate(0 322) scale(1 -1)" gradientUnits="userSpaceOnUse">
      <stop offset="0" stop-color="#050816"/>
      <stop offset=".5" stop-color="#0b1220"/>
      <stop offset="1" stop-color="#020617"/>
    </linearGradient>
    <linearGradient id="linear-gradient1" x1="291.3" y1="546.7" x2="292.6" y2="546.7" gradientTransform="translate(-31424 13217) scale(110 -24)" gradientUnits="userSpaceOnUse">
      <stop offset="0" stop-color="#1471b9"/>
      <stop offset=".5" stop-color="#8c54a2"/>
      <stop offset="1" stop-color="#f1ea40"/>
    </linearGradient>
    <linearGradient id="linear-gradient2" x1="186.3" y1="41.4" x2="186.3" y2="273.2" gradientUnits="userSpaceOnUse">
      <stop offset="0" stop-color="#4a6b77"/>
      <stop offset="1" stop-color="#00002b"/>
    </linearGradient>
    <filter id="outer-glow-1" x="118" y="76" width="137" height="159" filterUnits="userSpaceOnUse">
      <feOffset dx="0" dy="0"/>
      <feGaussianBlur result="blur" stdDeviation="5"/>
      <feFlood flood-color="#35f9f9" flood-opacity=".8"/>
      <feComposite in2="blur" operator="in"/>
      <feComposite in="SourceGraphic"/>
    </filter>
    <filter id="outer-glow-2" x="133.1" y="91.9" width="106.6" height="127.7" filterUnits="userSpaceOnUse">
      <feOffset dx="0" dy="0"/>
      <feGaussianBlur result="blur1" stdDeviation="5"/>
      <feFlood flood-color="#35f9f9" flood-opacity=".8"/>
      <feComposite in2="blur1" operator="in"/>
      <feComposite in="SourceGraphic"/>
    </filter>
    <clipPath id="clippath">
      <path class="st0" d="M186.3,91.9c-29.4,0-53.3,22-53.3,49.1s7.7,22.9,14.8,32c6.8,8.7,9.4,11.3,27.4,31.2,3.5-1.8,8.6-6.3,10.1-7.7,0,0,0,0-.1-.1-.3-.3-1.2-1.1-2.4-2.4-14.4-14.2-35.3-34.2-35.6-52.5,0-.2,0-.3,0-.5,0-20,17.6-36.2,39.2-36.2s14.4,1.9,20.3,5.2c.5.3,1.1.6,1.6.9,2.3,1.5,4.5,3.2,6.5,5,.4.4.9.8,1.3,1.3,1,1.1,2,2.2,2.9,3.4,4.2,5.8,6.7,12.7,6.7,20.2s0,0,0,0c0,.2,0,.4,0,.5-.4,17-17.9,35-32.3,49.2-4.1,4.2-6.9,6.8-6.9,6.8-3.7,3.7-10.5,8.5-13.8,10-7.7,3.4-14.5.5-16.7-1.1-3.7-2.6-2.2-6,5.1-14.1l-6.1-6.7-3.6,3.9c-7.3,8.3-9.4,17.6-.4,24.2,17,12.5,33.7.8,33.7.8,8.6-5,31.7-29.5,31.7-29.5l8.6-10.1c7.9-10.5,14.8-20.8,14.8-34,0-27.1-23.9-49.1-53.3-49.1Z"/>
    </clipPath>
    <filter id="outer-glow-3" x="133" y="105.8" width="52.1" height="98.4" filterUnits="userSpaceOnUse">
      <feOffset dx="0" dy="0"/>
      <feGaussianBlur result="blur2" stdDeviation="5"/>
      <feFlood flood-color="#35f9f9" flood-opacity=".8"/>
      <feComposite in2="blur2" operator="in"/>
      <feComposite in="SourceGraphic"/>
    </filter>
    <clipPath id="clippath-1">
      <path id="Base_Shape1" data-name="Base_Shape" class="st0" d="M186.3,91.9c-29.4,0-53.3,22-53.3,49.1s7.7,22.9,14.8,32c6.8,8.7,9.4,11.3,27.4,31.2,3.5-1.8,8.6-6.3,10.1-7.7,0,0,0,0-.1-.1-.3-.3-1.2-1.1-2.4-2.4-14.4-14.2-35.3-34.2-35.6-52.5,0-.2,0-.3,0-.5,0-20,17.6-36.2,39.2-36.2s14.4,1.9,20.3,5.2c.5.3,1.1.6,1.6.9,2.3,1.5,4.5,3.2,6.5,5,.4.4.9.8,1.3,1.3,1,1.1,2,2.2,2.9,3.4,4.2,5.8,6.7,12.7,6.7,20.2s0,0,0,0c0,.2,0,.4,0,.5-.4,17-17.9,35-32.3,49.2-4.1,4.2-6.9,6.8-6.9,6.8-3.7,3.7-10.5,8.5-13.8,10-7.7,3.4-14.5.5-16.7-1.1-3.7-2.6-2.2-6,5.1-14.1l-6.1-6.7-3.6,3.9c-7.3,8.3-9.4,17.6-.4,24.2,17,12.5,33.7.8,33.7.8,8.6-5,31.7-29.5,31.7-29.5l8.6-10.1c7.9-10.5,14.8-20.8,14.8-34,0-27.1-23.9-49.1-53.3-49.1Z"/>
    </clipPath>
    <clipPath id="clippath-2">
      <path id="Base_Shape2" data-name="Base_Shape" class="st0" d="M186.3,91.9c-29.4,0-53.3,22-53.3,49.1s7.7,22.9,14.8,32c6.8,8.7,9.4,11.3,27.4,31.2,1.8-1.2,8.6-6.3,10.1-7.7,0,0,0,0-.1-.1-.3-.3-1.2-1.1-2.4-2.4-14.4-14.2-35.3-34.2-35.6-52.5,0-.2,0-.3,0-.5,0-20,17.6-36.2,39.2-36.2s14.4,1.9,20.3,5.2c.5.3,1.1.6,1.6.9,2.3,1.5,4.5,3.2,6.5,5,.4.4.9.8,1.3,1.3,1,1.1,2,2.2,2.9,3.4,4.2,5.8,6.7,12.7,6.7,20.2s0,0,0,0c0,.2,0,.4,0,.5-.4,17-17.9,35-32.3,49.2-4.1,4.2-6.9,6.8-6.9,6.8-3.7,3.7-10.5,8.5-13.8,10-7.7,3.4-14.5.5-16.7-1.1-3.7-2.6-2.2-6,5.1-14.1l-6.1-6.7-3.6,3.9c-7.3,8.3-9.4,17.6-.4,24.2,17,12.5,33.7.8,33.7.8,8.6-5,31.7-29.5,31.7-29.5l8.6-10.1c7.9-10.5,14.8-20.8,14.8-34,0-27.1-23.9-49.1-53.3-49.1Z"/>
    </clipPath>
    <clipPath id="clippath-3">
      <path id="Bottom_Loop1" data-name="Bottom_Loop" class="st0" d="M175.7,206c-1.2.7-2.2,1.3-3.1,1.7-7.7,3.4-14.5.5-16.7-1.1-3.7-2.6-2.2-6,5.1-14.1l-6.1-6.7-3.6,3.9c-7.3,8.3-9.4,17.6-.4,24.2,15,11,29.8,3.2,33.1,1.3l-8.3-9.1Z"/>
    </clipPath>
    <linearGradient id="linear-gradient3" x1="31.6" y1="888.3" x2="69.1" y2="929.5" gradientTransform="translate(508.3 -192) rotate(39.1) scale(.6) skewX(-5.7)" gradientUnits="userSpaceOnUse">
      <stop offset=".3" stop-color="#152659" stop-opacity=".7"/>
      <stop offset=".5" stop-color="#133262" stop-opacity=".6"/>
      <stop offset=".7" stop-color="#10587f" stop-opacity=".4"/>
      <stop offset=".8" stop-color="#0b8ca7" stop-opacity=".2"/>
      <stop offset="1" stop-color="#00eaef" stop-opacity="0"/>
      <stop offset="1" stop-color="#00f2f5" stop-opacity="0"/>
    </linearGradient>
    <filter id="outer-glow-4" x="118" y="76" width="137" height="159" filterUnits="userSpaceOnUse">
      <feOffset dx="0" dy="0"/>
      <feGaussianBlur result="blur3" stdDeviation="5"/>
      <feFlood flood-color="#35f9f9" flood-opacity=".8"/>
      <feComposite in2="blur3" operator="in"/>
      <feComposite in="SourceGraphic"/>
    </filter>
    <clipPath id="clippath-4">
      <path id="Base_Shape3" data-name="Base_Shape" class="st0" d="M186.3,91.9c29.4,0,53.3,22,53.3,49.1s-7.7,22.9-14.8,32c-6.8,8.7-9.4,11.3-27.4,31.2-3.5-1.8-8.6-6.3-10.1-7.7,0,0,0,0,.1-.1.3-.3,1.2-1.1,2.4-2.4,14.4-14.2,35.3-34.2,35.6-52.5,0-.2,0-.3,0-.5,0-20-17.6-36.2-39.2-36.2s-14.4,1.9-20.3,5.2c-.5.3-1.1.6-1.6.9-2.3,1.5-4.5,3.2-6.5,5-.4.4-.9.8-1.3,1.3-1,1.1-2,2.2-2.9,3.4-4.2,5.8-6.7,12.7-6.7,20.2s0,0,0,0c0,.2,0,.4,0,.5.4,17,17.9,35,32.3,49.2,4.1,4.2,6.9,6.8,6.9,6.8,3.7,3.7,10.5,8.5,13.8,10,7.7,3.4,14.5.5,16.7-1.1,3.7-2.6,2.2-6-5.1-14.1l6.1-6.7,3.6,3.9c7.3,8.3,9.4,17.6.4,24.2-17,12.5-33.7.8-33.7.8-8.6-5-31.7-29.5-31.7-29.5l-8.6-10.1c-7.9-10.5-14.8-20.8-14.8-34,0-27.1,23.9-49.1,53.3-49.1Z"/>
    </clipPath>
    <linearGradient id="linear-gradient4" x1="192.4" y1="328.4" x2="400.4" y2="328.4" xlink:href="#linear-gradient2"/>
    <linearGradient id="linear-gradient5" x1="192.4" y1="328.4" x2="400.4" y2="328.4" xlink:href="#linear-gradient2"/>
    <clipPath id="clippath-5">
      <path id="Bottom_Loop15" data-name="Bottom_Loop" class="st0" d="M197.8,205.8c1.2.7,1.4,1,2.2,1.4,7.7,3.4,14.5.9,16.7-.6,3.7-2.6,2.2-6-5.1-14.1l6.1-6.7,3.6,3.9c7.3,8.3,9.4,17.6.4,24.2-15,11-31,2.7-34.3.7l10.3-8.8Z"/>
    </clipPath>
    <clipPath id="clippath-6">
      <path id="Bottom_Loop16" data-name="Bottom_Loop" class="st121" d="M197.4,206.3c1.2.7,1.6.9,2.4,1.3,7.7,3.4,14.7.5,17-1.1,3.7-2.6,2.2-6-5.1-14.1l6.1-6.7,3.6,3.9c7.3,8.3,9.4,17.6.4,24.2-15,11-31,2.7-34.3.7l9.9-8.2Z"/>
    </clipPath>
    <clipPath id="clippath-7">
      <path class="st0" d="M197.8,205.8c1.2.7,1.4,1,2.2,1.4,7.7,3.4,14.5.9,16.7-.6,3.7-2.6,2.2-6-5.1-14.1l6.1-6.7,3.6,3.9c7.3,8.3,9.4,17.6.4,24.2-15,11-31,2.7-34.3.7l10.3-8.8Z"/>
    </clipPath>
    <linearGradient id="linear-gradient6" x1="105.9" y1="822.3" x2="138.7" y2="858.5" xlink:href="#linear-gradient3"/>
    <radialGradient id="radial-gradient" cx="186.3" cy="141" fx="186.3" fy="141" r="31.4" gradientUnits="userSpaceOnUse">
      <stop offset="0" stop-color="#fff"/>
      <stop offset="1" stop-color="#e1e593" stop-opacity="0"/>
    </radialGradient>
    <filter id="outer-glow-5" x="321.4" y="103.7" width="131" height="37" filterUnits="userSpaceOnUse">
      <feOffset dx="0" dy="0"/>
      <feGaussianBlur result="blur4" stdDeviation="2"/>
      <feFlood flood-color="#35f9f9" flood-opacity=".8"/>
      <feComposite in2="blur4" operator="in"/>
      <feComposite in="SourceGraphic"/>
    </filter>
    <filter id="luminosity-invert" x="325.4" y="107.7" width="12" height="29" color-interpolation-filters="sRGB" filterUnits="userSpaceOnUse">
      <feColorMatrix result="cm" values="-1 0 0 0 1 0 -1 0 0 1 0 0 -1 0 1 0 0 0 1 0"/>
    </filter>
    <mask id="mask" x="325.4" y="107.7" width="12" height="29" maskUnits="userSpaceOnUse">
      <g class="st11">
        <image width="12" height="29" transform="translate(325.4 107.7)" xlink:href="luminait-header-1.png"/>
      </g>
    </mask>
    <filter id="luminosity-invert1" x="334.4" y="116.7" width="20" height="20" color-interpolation-filters="sRGB" filterUnits="userSpaceOnUse">
      <feColorMatrix result="cm" values="-1 0 0 0 1 0 -1 0 0 1 0 0 -1 0 1 0 0 0 1 0"/>
    </filter>
    <mask id="mask-1" x="334.4" y="116.7" width="20" height="20" maskUnits="userSpaceOnUse">
      <g class="st43">
        <image width="20" height="20" transform="translate(334.4 116.7)" xlink:href="luminait-header-2.png"/>
      </g>
    </mask>
    <filter id="luminosity-invert2" x="352.4" y="115.7" width="27" height="21" color-interpolation-filters="sRGB" filterUnits="userSpaceOnUse">
      <feColorMatrix result="cm" values="-1 0 0 0 1 0 -1 0 0 1 0 0 -1 0 1 0 0 0 1 0"/>
    </filter>
    <mask id="mask-2" x="352.4" y="115.7" width="27" height="21" maskUnits="userSpaceOnUse">
      <g class="st48">
        <image width="27" height="21" transform="translate(352.4 115.7)" xlink:href="luminait-header-3.png"/>
      </g>
    </mask>
    <filter id="luminosity-invert3" x="375.4" y="109.7" width="13" height="27" color-interpolation-filters="sRGB" filterUnits="userSpaceOnUse">
      <feColorMatrix result="cm" values="-1 0 0 0 1 0 -1 0 0 1 0 0 -1 0 1 0 0 0 1 0"/>
    </filter>
    <mask id="mask-3" x="375.4" y="109.7" width="13" height="27" maskUnits="userSpaceOnUse">
      <g class="st46">
        <image width="13" height="27" transform="translate(375.4 109.7)" xlink:href="luminait-header-4.png"/>
      </g>
    </mask>
    <filter id="luminosity-invert4" x="384.4" y="115.7" width="20" height="21" color-interpolation-filters="sRGB" filterUnits="userSpaceOnUse">
      <feColorMatrix result="cm" values="-1 0 0 0 1 0 -1 0 0 1 0 0 -1 0 1 0 0 0 1 0"/>
    </filter>
    <mask id="mask-4" x="384.4" y="115.7" width="20" height="21" maskUnits="userSpaceOnUse">
      <g class="st45">
        <image width="20" height="21" transform="translate(384.4 115.7)" xlink:href="luminait-header-5.png"/>
      </g>
    </mask>
    <filter id="luminosity-invert5" x="400.4" y="108.7" width="29" height="28" color-interpolation-filters="sRGB" filterUnits="userSpaceOnUse">
      <feColorMatrix result="cm" values="-1 0 0 0 1 0 -1 0 0 1 0 0 -1 0 1 0 0 0 1 0"/>
    </filter>
    <mask id="mask-5" x="400.4" y="108.7" width="29" height="28" maskUnits="userSpaceOnUse">
      <g class="st44">
        <image width="29" height="28" transform="translate(400.4 108.7)" xlink:href="luminait-header-6.png"/>
      </g>
    </mask>
    <filter id="luminosity-invert6" x="424.4" y="108.7" width="13" height="28" color-interpolation-filters="sRGB" filterUnits="userSpaceOnUse">
      <feColorMatrix result="cm" values="-1 0 0 0 1 0 -1 0 0 1 0 0 -1 0 1 0 0 0 1 0"/>
    </filter>
    <mask id="mask-6" x="424.4" y="108.7" width="13" height="28" maskUnits="userSpaceOnUse">
      <g class="st49">
        <image width="13" height="28" transform="translate(424.4 108.7)" xlink:href="luminait-header-7.png"/>
      </g>
    </mask>
    <filter id="luminosity-invert7" x="433.4" y="111.7" width="15" height="25" color-interpolation-filters="sRGB" filterUnits="userSpaceOnUse">
      <feColorMatrix result="cm" values="-1 0 0 0 1 0 -1 0 0 1 0 0 -1 0 1 0 0 0 1 0"/>
    </filter>
    <mask id="mask-7" x="433.4" y="111.7" width="15" height="25" maskUnits="userSpaceOnUse">
      <g class="st47">
        <image width="15" height="25" transform="translate(433.4 111.7)" xlink:href="luminait-header-8.png"/>
      </g>
    </mask>
  </defs>
  <g class="st6">
    <g id="Layer_1">
      <rect class="st60" width="1200" height="320" rx="32" ry="32"/>
      <rect class="st1" x=".8" y=".8" width="1198.5" height="318.5" rx="31.3" ry="31.3"/>
      <g>
        <path class="st114" d="M634,82h339c7.7,0,14,6.3,14,14h0c0,7.7-6.3,14-14,14h-339c-7.7,0-14-6.3-14-14h0c0-7.7,6.3-14,14-14Z"/>
        <path class="st9" d="M634,84h119.5c6.6,0,12,5.4,12,12h0c0,6.6-5.4,12-12,12h-119.5c-6.6,0-12-5.4-12-12h0c0-6.6,5.4-12,12-12Z"/>
        <text class="st5" transform="translate(634.8 101.2)"><tspan x="0" y="0">CLIENT PRODUCT </tspan></text>
        <text class="st8" transform="translate(785.8 101)"><tspan x="0" y="0">dc-narrative-content-engine</tspan></text>
        <text class="st3" transform="translate(620 142)"><tspan class="st37" x="0" y="0">AI-powered</tspan><tspan class="st41" x="68.7" y="0"> </tspan><tspan class="st37" x="73.5" y="0">narrative</tspan><tspan class="st41" x="125.5" y="0"> </tspan><tspan class="st35" x="130.3" y="0">content</tspan><tspan class="st41" x="176.1" y="0"> </tspan><tspan class="st37" x="180.9" y="0">engine</tspan><tspan class="st41" x="221.6" y="0"> </tspan><tspan class="st37" x="226.3" y="0">for</tspan></text>
        <text class="st3" transform="translate(620 164)"><tspan class="st37" x="0" y="0">story-driven</tspan><tspan class="st41" x="70.6" y="0"> </tspan><tspan class="st37" x="75.4" y="0">social</tspan><tspan class="st41" x="108.2" y="0"> </tspan><tspan class="st37" x="113" y="0">media</tspan><tspan class="st41" x="149.6" y="0"> </tspan><tspan class="st37" x="154.4" y="0">campaigns</tspan><tspan class="st41" x="218.2" y="0"> </tspan><tspan class="st37" x="223" y="0">—</tspan></text>
        <text class="st3" transform="translate(620 186)"><tspan class="st37" x="0" y="0">images,</tspan><tspan class="st41" x="45" y="0"> </tspan><tspan class="st37" x="49.8" y="0">carousels,</tspan><tspan class="st41" x="107.1" y="0"> </tspan><tspan class="st37" x="111.9" y="0">&amp;</tspan><tspan class="st41" x="120.3" y="0"> </tspan><tspan class="st37" x="125.1" y="0">dynamic</tspan><tspan class="st41" x="175.3" y="0"> </tspan><tspan class="st37" x="180.1" y="0">videos</tspan></text>
        <text class="st7" transform="translate(620 220)"><tspan class="st37" x="0" y="0">Powered</tspan><tspan class="st41" x="40.8" y="0"> </tspan><tspan class="st37" x="44.6" y="0">by</tspan><tspan class="st41" x="56" y="0"> </tspan><tspan class="st37" x="59.8" y="0">Supabase</tspan><tspan class="st41" x="104.2" y="0"> </tspan><tspan class="st37" x="108" y="0">·</tspan><tspan class="st41" x="110.3" y="0"> </tspan><tspan class="st37" x="114" y="0">Vercel</tspan><tspan class="st41" x="142.3" y="0"> </tspan><tspan class="st37" x="146.1" y="0">AI</tspan><tspan class="st41" x="155.4" y="0"> </tspan><tspan class="st37" x="159.2" y="0">SDK</tspan><tspan class="st41" x="177.9" y="0"> </tspan><tspan class="st37" x="181.7" y="0">·</tspan><tspan class="st41" x="183.9" y="0"> </tspan><tspan class="st33" x="187.7" y="0">Shotstack</tspan><tspan class="st41" x="232.3" y="0"> </tspan><tspan class="st37" x="236.1" y="0">·</tspan><tspan class="st41" x="238.3" y="0"> </tspan><tspan class="st37" x="242.1" y="0">n8n</tspan></text>
      </g>
      <g id="Layer_2">
        <circle class="st21" cx="186.3" cy="157.3" r="115.9"/>
        <g id="Layer_3">
          <path id="Base_Shape_-Outer_Glow" class="st17" d="M186.4,91.9c-29.4,0-53.3,22-53.3,49.1s7.7,22.9,14.8,32c6.8,8.7,9.3,11.3,27.3,31.2,3.5-1.8,8.7-6.4,10.1-7.7,0,0,0,0,0,0-.3-.3-1.1-1.1-2.4-2.4-14.4-14.2-35.3-34.2-35.6-52.5,0-.2,0-.3,0-.5,0-20,17.6-36.2,39.2-36.2s14.4,1.9,20.3,5.2c.5.3,1.1.6,1.6.9,2.3,1.5,4.5,3.2,6.5,5,.4.4.9.8,1.3,1.3,1,1.1,2,2.2,2.9,3.4,4.2,5.8,6.7,12.7,6.7,20.2s0,0,0,0c0,.2,0,.4,0,.5-.4,17-17.9,35-32.3,49.2-4.1,4.2-6.9,6.8-6.9,6.8-3.7,3.7-10.5,8.5-13.8,10-2.5,1.1-11.4,2.4-13.5,2.4l10,9.1c5-.2,15.5-4.5,15.5-4.5,8.6-5,31.7-29.5,31.7-29.5l8.6-10.1c7.9-10.5,14.8-20.8,14.8-34,0-27.1-23.9-49.1-53.3-49.1Z"/>
          <path id="Base_Shape" class="st20" d="M186.3,91.9c-29.4,0-53.3,22-53.3,49.1s7.7,22.9,14.8,32c6.8,8.7,9.4,11.3,27.4,31.2,3.5-1.8,8.6-6.3,10.1-7.7,0,0,0,0-.1-.1-.3-.3-1.2-1.1-2.4-2.4-14.4-14.2-35.3-34.2-35.6-52.5,0-.2,0-.3,0-.5,0-20,17.6-36.2,39.2-36.2s14.4,1.9,20.3,5.2c.5.3,1.1.6,1.6.9,2.3,1.5,4.5,3.2,6.5,5,.4.4.9.8,1.3,1.3,1,1.1,2,2.2,2.9,3.4,4.2,5.8,6.7,12.7,6.7,20.2s0,0,0,0c0,.2,0,.4,0,.5-.4,17-17.9,35-32.3,49.2-4.1,4.2-6.9,6.8-6.9,6.8-3.7,3.7-10.5,8.5-13.8,10-7.7,3.4-14.5.5-16.7-1.1-3.7-2.6-2.2-6,5.1-14.1l-6.1-6.7-3.6,3.9c-7.3,8.3-9.4,17.6-.4,24.2,17,12.5,33.7.8,33.7.8,8.6-5,31.7-29.5,31.7-29.5l8.6-10.1c7.9-10.5,14.8-20.8,14.8-34,0-27.1-23.9-49.1-53.3-49.1Z"/>
          <path id="Base_Shape_-Shrunk_by_a_pixel" class="st18" d="M186.4,91.9c-29.4,0-53.3,22-53.3,49.1s7.7,22.9,14.8,32c6.8,8.7,9.3,11.3,27.3,31.2,3.5-1.8,8.7-6.4,10.1-7.7,0,0,0,0,0,0-.3-.3-1.1-1.1-2.4-2.4-14.4-14.2-35.3-34.2-35.6-52.5,0-.2,0-.3,0-.5,0-20,17.6-36.2,39.2-36.2s14.4,1.9,20.3,5.2c.5.3,1.1.6,1.6.9,2.3,1.5,4.5,3.2,6.5,5,.4.4.9.8,1.3,1.3,1,1.1,2,2.2,2.9,3.4,4.2,5.8,6.7,12.7,6.7,20.2s0,0,0,0c0,.2,0,.4,0,.5-.4,17-17.9,35-32.3,49.2-4.1,4.2-6.9,6.8-6.9,6.8-3.7,3.7-10.5,8.5-13.8,10-7.7,3.4-14.5.5-16.7-1.1-3.7-2.6-2.4-5.9,4.9-14l-6.1-6.5-3.4,3.7c-7.3,8.3-9.4,17.6-.4,24.2,17,12.5,33.7.8,33.7.8,8.6-5,31.7-29.5,31.7-29.5l8.6-10.1c7.9-10.5,14.8-20.8,14.8-34,0-27.1-23.9-49.1-53.3-49.1Z"/>
          <path id="Bottom_Loop" class="st20" d="M175.7,206c-1.2.7-2.2,1.3-3.1,1.7-7.7,3.4-14.5.5-16.7-1.1-3.7-2.6-2.2-6,5.1-14.1l-6.1-6.7-3.6,3.9c-7.3,8.3-9.4,17.6-.4,24.2,15,11,29.8,3.2,33.1,1.3l-8.3-9.1Z"/>
          <g class="st118">
            <path class="st14" d="M186.3,93.1c-28.9,0-52.3,21.6-52.3,48.2s7.5,22.5,14.5,31.4c6.7,8.6,9.6,11.7,27.2,31.2,3.4-1.8,8.1-6.8,9.5-8.1,0,0,0,0-.1-.1-.3-.3-1.1-1.1-2.4-2.3-14.1-13.9-34.6-33.6-35-51.5,0-.2,0-.3,0-.5,0-19.6,17.2-35.5,38.5-35.5s14.1,1.9,20,5.1c.5.3,1.1.6,1.6.9,2.3,1.4,4.4,3.1,6.3,4.9.4.4.8.8,1.2,1.3,1,1.1,1.9,2.2,2.8,3.4,4.2,5.7,6.6,12.5,6.6,19.8s0,0,0,0c0,.2,0,.3,0,.5-.4,16.6-17.6,34.3-31.7,48.3-4,4.1-6.8,6.7-6.8,6.7-3.6,3.6-10.3,8.4-13.5,9.8-7.6,3.4-14.2.5-16.4-1.1-3.7-2.6-2.2-5.9,5-13.8l-5.9-6.6-3.5,3.8c-7.2,8.2-9.4,17.9-.6,24.3,16.7,12.3,33.2.3,33.2.3,8.4-4.9,31.1-29,31.1-29l8.4-9.9c7.8-10.3,14.5-20.4,14.5-33.3,0-26.6-23.4-48.2-52.3-48.2Z"/>
            <path class="st16" d="M186.3,94.7c-28.1,0-50.9,21-50.9,47s7.3,21.9,14.1,30.6c6.5,8.4,9.8,12.2,27,31.2,3.3-1.7,7.4-7.4,8.8-8.7,0,0,0,0-.1-.1-.3-.3-1.1-1.1-2.3-2.3-13.8-13.6-33.7-32.7-34.1-50.2,0-.2,0-.3,0-.5,0-19.1,16.8-34.6,37.5-34.6s13.8,1.8,19.5,5c.5.3,1,.6,1.5.9,2.2,1.4,4.3,3,6.2,4.8.4.4.8.8,1.2,1.2,1,1,1.9,2.1,2.7,3.3,4,5.5,6.4,12.2,6.4,19.3s0,0,0,0c0,.2,0,.3,0,.5-.3,16.2-17.1,33.4-30.9,47-3.9,4-6.6,6.5-6.6,6.5-3.5,3.5-10,8.2-13.2,9.6-7.4,3.3-13.8.5-16-1-3.6-2.5-2.1-5.7,4.8-13.5l-5.8-6.4-3.4,3.7c-7,8-9.6,17.9-1,24.2,16.2,11.9,32.8-.3,32.8-.3,8.2-4.8,30.3-28.2,30.3-28.2l8.2-9.7c7.6-10.1,14.2-19.9,14.2-32.5,0-25.9-22.8-47-50.9-47Z"/>
            <path class="st14" d="M186.3,96c-27.6,0-49.9,20.6-49.9,46s7.2,21.5,13.8,29.9c6.4,8.2,10.5,12.3,27.4,30.9,3.3-1.7,8.1-5.9,9.5-7.2,0,0-1.8-1.8-1.8-1.8-.3-.3-1.1-1.1-2.2-2.2-13.5-13.3-33-32-33.4-49.1,0-.2,0-.3,0-.5,0-18.7,16.5-33.9,36.7-33.9s13.5,1.8,19.1,4.9c.5.3,1,.6,1.5.9,2.2,1.4,4.2,3,6.1,4.7.4.4.8.8,1.2,1.2,1,1,1.9,2.1,2.7,3.2,4,5.4,6.3,11.9,6.3,18.9s0,0,0,0c0,.2,0,.3,0,.5-.3,15.9-16.8,32.8-30.3,46.1-3.8,3.9-6.5,6.4-6.5,6.4-3.4,3.5-8.2,8.2-11.3,9.5-7.3,3.1-15.1.3-17.2-1.2-3.5-2.5-2.5-5.2,4.3-12.8l-5.4-6.3-3.2,3.3c-6.9,7.8-9.6,18.1-1.2,24.2,15.9,11.7,32.4-.7,32.4-.7,8-4.7,29.7-27.7,29.7-27.7l8-9.5c7.4-9.9,13.9-19.5,13.9-31.8,0-25.4-22.3-46-49.9-46Z"/>
            <path class="st16" d="M186.3,97.5c-26.9,0-48.6,20.1-48.6,44.8s7,20.9,13.5,29.2c6.2,8,11,12.9,27.4,31,3.2-1.6,7.9-6,9.2-7.2,0,0-2.5-2.5-2.5-2.5-.3-.3-1.1-1-2.2-2.2-13.2-12.9-32.2-31.2-32.5-47.9,0-.2,0-.3,0-.5,0-18.2,16-33,35.8-33s13.2,1.7,18.6,4.8c.5.3,1,.6,1.5.9,2.1,1.3,4.1,2.9,5.9,4.6.4.4.8.8,1.2,1.2.9,1,1.8,2,2.6,3.1,3.9,5.3,6.1,11.6,6.1,18.4s0,0,0,0c0,.2,0,.3,0,.5-.3,15.5-16.3,31.9-29.5,44.9-3.7,3.8-5.1,7.1-5.1,7.1-3.4,3.4-8.9,8.5-12,9.9-7.3,3.2-11.7,1.1-17-2.6-3.4-2.4-3.6-4.5,3-11.9l-5.5-6.1-1.7,2.6c-6.7,7.6-9.8,18.3-1.6,24.3,15.5,11.4,32-1.4,32-1.4,7.8-4.5,28.9-26.9,28.9-26.9l7.8-9.2c7.2-9.6,13.5-19,13.5-31,0-24.7-21.8-44.8-48.6-44.8Z"/>
            <path class="st14" d="M186.3,99c-26.2,0-47.4,19.6-47.4,43.7s6.8,20.4,13.1,28.4c6.1,7.8,11.2,13,27.2,30.6,3.1-1.6,7.7-5.6,9-6.8,0,0-2.9-2.9-3-3-.3-.3-1-1-2.1-2.1-12.8-12.6-31.4-30.4-31.7-46.7,0-.2,0-.3,0-.5,0-17.8,15.6-32.2,34.9-32.2s12.8,1.7,18.1,4.7c.5.3,1,.5,1.4.8,2.1,1.3,4,2.8,5.7,4.5.4.4.8.8,1.1,1.1.9,1,1.8,2,2.5,3.1,3.8,5.1,6,11.3,6,18s0,0,0,0c0,.2,0,.3,0,.5-.3,15.1-15.9,31.1-28.7,43.7-3.7,3.7-4.9,8.7-4.9,8.7-3.3,3.3-9.3,7.6-12.3,8.9-6.9,3.1-14.1-2.2-16.1-3.6-3.3-2.3-3.2-2,3.3-9.2l-5.4-6h-2c-6.5,7.6-9.9,18.4-2,24.3,15.1,11.1,31.6-1.8,31.6-1.8,7.6-4.4,28.2-26.3,28.2-26.3l7.6-9c7-9.4,13.2-18.5,13.2-30.2,0-24.1-21.2-43.7-47.4-43.7Z"/>
            <path class="st16" d="M186.3,100.7c-25.4,0-46,19-46,42.4s6.6,19.8,12.7,27.6c5.9,7.5,11.6,13.5,27.1,30.6,3-1.5,7.4-5.7,8.7-6.9,0,0-3.5-3.5-3.6-3.6-.3-.3-1-1-2.1-2-12.4-12.2-30.4-29.5-30.8-45.3,0-.2,0-.3,0-.4,0-17.2,15.2-31.2,33.9-31.2s12.4,1.7,17.6,4.5c.5.3.9.5,1.4.8,2,1.3,3.9,2.7,5.6,4.3.4.4.7.7,1.1,1.1.9.9,1.7,1.9,2.5,3,3.7,5,5.8,11,5.8,17.5s0,0,0,0c0,.2,0,.3,0,.5-.3,14.6-15.5,30.2-27.9,42.4-3.5,3.6-4.3,9.9-4.3,9.9-3.2,3.2-9,7.4-11.9,8.7-6.7,3-14.1-3.6-16.1-5-3.2-2.3-5.5-1.1.8-8.1l-5.2-5.8.5-.8c-6.3,7.2-10.1,18.6-2.3,24.3,14.7,10.8,31.1-2.7,31.1-2.7,7.4-4.3,27.4-25.5,27.4-25.5l7.4-8.7c6.8-9.1,12.8-17.9,12.8-29.3,0-23.4-20.6-42.4-46-42.4Z"/>
            <path class="st14" d="M186.3,102c-24.8,0-44.9,18.5-44.9,41.4s6.4,19.3,12.4,26.9c5.8,7.4,11.8,13.6,27,30.3,2.9-1.5,7.1-5.7,8.3-6.8,0,0-3.8-3.8-3.8-3.8-.3-.3-1-1-2-2-12.1-11.9-29.7-28.8-30-44.2,0-.1,0-.3,0-.4,0-16.8,14.8-30.5,33-30.5s12.1,1.6,17.1,4.4c.5.3.9.5,1.3.8,2,1.2,3.8,2.7,5.4,4.2.4.4.7.7,1.1,1.1.9.9,1.7,1.9,2.4,2.9,3.6,4.9,5.6,10.7,5.6,17s0,0,0,0c0,.1,0,.3,0,.4-.3,14.3-12.9,33.9-25.1,45.9-3.5,3.5-5.8,5.7-5.8,5.7-3.1,3.1-8.8,7.2-11.6,8.4-6.5,2.9-14.3-4.1-16.2-5.4-3.1-2.2-6.3-1.3-.1-8.1l-5.1-5.6,1.4-.5c-6.2,7-10.6,18.3-3.1,23.9,14.3,10.5,31.1-2.7,31.1-2.7,7.2-4.2,26.7-24.9,26.7-24.9l7.2-8.5c6.7-8.9,12.5-17.5,12.5-28.6,0-22.8-20.1-41.4-44.9-41.4Z"/>
            <path class="st16" d="M186.3,103.5c-24.1,0-43.6,18-43.6,40.2s6.3,18.8,12.1,26.2c5.6,7.2,11.9,13.9,26.7,30.2,2.9-1.5,7.1-5.2,8.3-6.3,0,0-4.3-4.7-4.4-4.8-.3-.3-.9-.9-2-1.9-11.8-11.6-28.9-28-29.2-43,0-.1,0-.3,0-.4,0-16.4,14.4-29.6,32.1-29.6s11.8,1.6,16.7,4.3c.4.2.9.5,1.3.8,1.9,1.2,3.7,2.6,5.3,4.1.4.3.7.7,1,1.1.8.9,1.6,1.8,2.3,2.8,3.5,4.7,5.5,10.4,5.5,16.6s0,0,0,0c0,.1,0,.3,0,.4-.3,13.9-14.7,28.6-26.5,40.3-3.4,3.4-3.2,9.9-3.2,9.9-3,3-9.5,8.9-12.3,10.1-6.3,2.8-13.3-5.9-15.1-7.2-3-2.1-7-1.1-1.1-7.8l-5-5.5.4.6c-6,6.8-8.6,17.3-1.3,22.7,13.9,10.2,30.4-3.4,30.4-3.4,7-4.1,26-24.2,26-24.2l7-8.3c6.5-8.6,12.1-17,12.1-27.8,0-22.2-19.5-40.2-43.6-40.2Z"/>
            <path class="st14" d="M186.3,104.9c-23.5,0-42.5,17.5-42.5,39.2s6.1,18.3,11.8,25.5c5.5,7,12.3,14.2,26.6,30.1,2.8-1.4,6.9-5.1,8.1-6.1,0,0-4.9-5.3-4.9-5.3-.3-.2-.9-.9-1.9-1.9-11.5-11.3-28.1-27.3-28.4-41.8,0-.1,0-.3,0-.4,0-15.9,14-28.8,31.3-28.8s11.5,1.5,16.2,4.2c.4.2.9.5,1.3.7,1.9,1.2,3.6,2.5,5.2,4,.3.3.7.7,1,1,.8.9,1.6,1.8,2.3,2.7,3.4,4.6,5.3,10.1,5.3,16.1s0,0,0,0c0,.1,0,.3,0,.4-.3,13.5-14.3,27.9-25.8,39.2-3.3,3.4-2.8,10.4-2.8,10.4-2.9,3-11,10.1-13.7,11.3-6.2,2.7-17.2-1.4-19-2.7-3-2.1-5.2-.5.6-7l-4.8-5.3,3.4-2.6c-5.8,6.7-7.6,13.9-.5,19.2,13.5,10,29.7-4.2,29.7-4.2,6.8-4,25.3-23.5,25.3-23.5l6.8-8.1c6.3-8.4,11.8-16.6,11.8-27.1,0-21.6-19-39.2-42.5-39.2Z"/>
            <path class="st16" d="M186.3,106.6c-22.7,0-41.1,17-41.1,37.9s5.9,17.7,11.4,24.7c5.3,6.7,12.3,14.4,26.2,29.7,2.7-1.4,6.7-4.9,7.8-5.9,0,0-5.2-5.7-5.2-5.7-.2-.2-.9-.9-1.9-1.8-11.1-10.9-27.2-26.4-27.5-40.5,0-.1,0-.3,0-.4,0-15.4,13.5-27.9,30.3-27.9s11.1,1.5,15.7,4c.4.2.8.5,1.2.7,1.8,1.1,3.5,2.4,5,3.9.3.3.7.7,1,1,.8.8,1.5,1.7,2.2,2.7,3.3,4.4,5.2,9.8,5.2,15.6s0,0,0,0c0,.1,0,.3,0,.4-.3,13.1-9.6,31.1-20.7,42.1-3.2,3.2-5.8,5.7-5.8,5.7-2.8,2.9-10.6,10.3-13.1,11.5-6,2.7-16.6,3-18.4,1.8-2.9-2-4.3-8.8,1.4-15l-4.7-5.2,1,.4c-5.6,6.4-7.3,15.4-.4,20.4,13.1,9.6,29.2-5.2,29.2-5.2,7.4-5.1,24.3-23,24.3-23l6.6-7.8c6.1-8.1,11.4-16,11.4-26.2,0-20.9-18.4-37.9-41.1-37.9Z"/>
            <g>
              <path class="st14" d="M157,196.5c.7.9,1.6,1.9,2.7,2.7,1.8,1.3,3.6,2.3,5.3,3-2.6-1.8-5.5-3.8-8.1-5.7Z"/>
              <path class="st14" d="M186.3,108c-22,0-39.9,16.5-39.9,36.8s5.7,17.2,11.1,23.9c5.1,6.5,12.7,14.6,26.2,29.5,2.6-1.3,6.5-4.7,7.6-5.8,0,0-5.8-6.2-5.8-6.2-.2-.2-.9-.8-1.8-1.8-10.8-10.6-26.4-25.6-26.7-39.3,0-.1,0-.3,0-.4,0-15,13.2-27.1,29.4-27.1s10.8,1.4,15.2,3.9c.4.2.8.5,1.2.7,1.8,1.1,3.4,2.4,4.8,3.8.3.3.6.6.9,1,.8.8,1.5,1.7,2.1,2.6,3.2,4.3,5,9.5,5,15.1s0,0,0,0c0,.1,0,.3,0,.4-.3,12.7-13.4,26.2-24.2,36.8-3.1,3.1-5.2,5.1-5.2,5.1-1.5,1.5-3,2.8-5,4.2l5,5.5s-11.9,8.7-15.7,11.5c4.1-1.1,11-5.7,14.3-8.2,6.7-5,23.8-22.4,23.8-22.4l6.4-7.6c5.9-7.9,11.1-15.6,11.1-25.4,0-20.3-17.9-36.8-39.9-36.8Z"/>
            </g>
            <path class="st16" d="M186,197.1c6.2-3.6,21.8-20.2,21.8-20.2l6.2-7.3c5.7-7.6,10.6-14.9,10.6-24.4,0-19.5-17.1-35.3-38.3-35.3s-38.3,15.8-38.3,35.3,5.1,16.6,10.2,23.2c4.9,6.3,12.9,15.2,26.4,28.8,2.5-1.3,6.2-4.6,7.3-5.5,0,0-6.4-6.6-6.4-6.7-.2-.2-.8-.8-1.7-1.7-10.3-10.2-25.3-24.6-25.6-37.7,0-.1,0-.3,0-.4,0-14.3,12.6-26,28.2-26s10.3,1.4,14.6,3.8c.4.2.8.4,1.1.7,1.7,1,3.2,2.3,4.6,3.6.3.3.6.6.9.9.7.8,1.4,1.6,2.1,2.5,3,4.1,4.8,9.1,4.8,14.5s0,0,0,0c0,.1,0,.3,0,.4-.3,12.2-12.9,25.1-23.2,35.3-2.9,3-5,4.9-5,4.9-1.6,1.6-4,3.5-6.1,5l5,4.9.8,1.5Z"/>
          </g>
          <path class="st19" d="M175.2,204.2c.2,0-22.6-25.6-22.4-25.7.3-.2,23.1,23.9,23.7,25,.2,0-15-17.9-14.9-18,.3-.2,16.2,16.5,16.5,17,.2-.2.5-.4.7-.5.2-.1-21.9-24.4-21.7-24.5.2-.2,22.6,23.8,22.9,23.7.2-.1-19.1-21.2-18.9-21.3.1-.1,20,19.8,20.5,20.1.2,0-25.1-28.8-25.3-28.9.4,0,26.1,28.1,26.3,28,.2-.2.4-.3.6-.5.2-.1-8.7-9.9-8.5-10.1.3-.3,9.3,8.4,9.8,9.1.8-.7.5-.5.7-.6v-.2c-.3-.3-1.2-1.1-2.4-2.4-14.4-14.2-35.3-34.2-35.6-52.5,0-.2,0-.3,0-.5,0-5.4,1.3-10.6,3.6-15.2,0,0,0-.3,0-.1-.5.5-2.6,5.8-3,7.1-.9,2.7.8-4.4.9-5.6-1,1.5-3.2,7.1-3.2,7.1l2.9-10.2-5.9,9.1,3.6-8.9s.3-2.1,0-1.7c-1.6,2-6.2,10.8-6.2,10.8l4.1-11.6,5.3-8.1s-4.8,7.7-7.1,10c1.1-2.9,4-7.7,4.8-9.3-1,.8-5.4,6.4-5.4,6.4l6.2-9.3s.3-1.7,4.4-5.8c-4.2,3.2-12,13.2-12,13.2l-.9-.6c-3.8,6.8-6,14.5-6,22.7,0,13.2,7.7,22.9,14.8,32,6.8,8.7,9.4,11.3,27.4,31.2Z"/>
          <g class="st76">
            <path class="st14" d="M176.6,204.1l-2-2.9s1,.7,1.2.6c1.2-.6-3.8-5.3-3.8-5.3,0,0,1.6.6,3,2.3,1.3,1.7,2.7,2.2,2.6,1.6,0-.8-1.6-2.7-2.1-3.2-1.2-1.2-1.5-1.9-1.5-1.9,0,0,1.3.9,2.7,2.1s2.3,2.2,2.6,2.1c.5-.1-2.1-3.2-2.1-3.2,0,0,1.2.2,2.1,1.2s1.5,1.3,1.7,1.3c.4-.1-.4-1.2-1.5-2.5s0-.4,0-.4c0,0,.7.5,1.3,1s1.4,1.1,1.7.9c.6-.4-1-2.2-.9-2.1s3.1,2.6,3.1,2.6l-8.1,5.8Z"/>
          </g>
          <path class="st16" d="M219.5,178"/>
          <g class="st79">
            <g class="st77">
              <path id="Bottom_Loop2" data-name="Bottom_Loop" class="st16" d="M178.4,203.9c-1.2.7-4.9,3.4-5.8,3.8-7.7,3.4-14.5.5-16.7-1.1-3.7-2.6-2.2-6,5.1-14.1l-6.1-6.7-3.6,3.9c-7.3,8.3-9.4,17.6-.4,24.2,15,11,29,4.4,36-.6l-8.5-9.4Z"/>
              <path id="Bottom_Loop3" data-name="Bottom_Loop" class="st14" d="M177.4,204.9c-1.1.7-4.2,2.2-5,2.6-7.5,3.3-14,.5-16.2-1.1-3.6-2.5-1.5-6.5,5.6-14.3l-5.9-6.5-4.2,4.4c-7.1,8.1-9.1,17.1-.4,23.5,14.5,10.7,30.9,2.1,34.1.2l-8-8.9Z"/>
              <path id="Bottom_Loop4" data-name="Bottom_Loop" class="st16" d="M174.7,205.7c-1.1.7-2,1.2-2.8,1.5-7.1,3.1-13.2.4-15.3-1-3.4-2.4-2-5.5,4.6-12.9l-5-5.6s-5.4,5.9-5.7,5.7,2.2-2.7,2.2-2.7l-.9.9c-6.7,7.6-8,15.2.2,21.3,13.7,10.1,27.3,2.9,30.3,1.1l-7.6-8.4Z"/>
              <path id="Bottom_Loop5" data-name="Bottom_Loop" class="st14" d="M174.2,205.5c-1,.6-1.9,1.1-2.7,1.5-6.8,3-12.6.4-14.6-1-3.3-2.3-.5-6.7,5.8-13.7l-5.3-5.9-4.6,4.8c-7,8.3-8.3,15.7-.5,21.4,13.1,9.6,26.2,2.6,29,.8l-7.2-8Z"/>
              <path id="Bottom_Loop6" data-name="Bottom_Loop" class="st16" d="M173.6,205.4c-1,.6-1.8,1.1-2.5,1.4-6.3,2.8-11.8.4-13.6-.9-3-2.1-1.8-4.9,4.1-11.5l-4.8-4.3s-3.2,2.9-3.3,2.8,3.1-4,3.1-4l-2.9,3.2c-6.7,7.8-7.9,14.8-.6,20.1,12.3,9,24.6,2.3,27.2.7l-6.8-7.5Z"/>
              <path id="Bottom_Loop7" data-name="Bottom_Loop" class="st14" d="M173.1,205.2c-.9.6-1.7,1-2.4,1.3-6,2.7-11.2.4-12.9-.8-2.9-2-.4-5.9,5.2-12.2l-4.7-5.2-4.1,4.3c-6.4,7.5-7.6,14-.7,19.1,11.6,8.5,23.4,2.1,25.9.6l-6.4-7.1Z"/>
              <path id="Bottom_Loop8" data-name="Bottom_Loop" class="st16" d="M172.4,205c-.8.5-1.6.9-2.2,1.2-5.5,2.5-10.3.3-11.9-.8-2.7-1.9-1.6-4.3,3.6-10.1l-3.9-4.3s-2.4,2.3-2.6,2.2,2.1-2.7,2.1-2.7l-2.6,2.8c-6.1,6.8-7.2,13.1-.8,17.8,10.7,7.9,21.8,1.8,24.1.4l-5.9-6.5Z"/>
              <path id="Bottom_Loop9" data-name="Bottom_Loop" class="st14" d="M172,204.9c-.8.5-1.5.9-2,1.1-5.2,2.3-9.7.3-11.2-.7-2.5-1.8,0-5.4,4.8-10.9l-4.3-4.7-3.8,4c-5.9,6.7-6.7,12.6-.7,17,10,7.4,20.6,1.6,22.7.3l-5.5-6.1Z"/>
              <path id="Bottom_Loop10" data-name="Bottom_Loop" class="st16" d="M171.3,204.7c-.7.4-1.3.8-1.9,1-4.7,2.1-8.8.3-10.2-.7-2.3-1.6-1.4-3.6,3.1-8.6,0,0-5.7-1.8-6.3-1.6-1.9,1.3,3.3-3.5,3.2-3.6s-1.5,1-1.5,1l-1.5,1.4c-6.3,7.6-6.3,12.5-.9,16.5,9.1,6.7,19,1.1,20.9,0l-5-5.6Z"/>
              <path id="Bottom_Loop11" data-name="Bottom_Loop" class="st14" d="M170.7,204.5c-.7.4-1.2.7-1.7.9-4.3,1.9-8.1.3-9.4-.6-2.1-1.5.6-5.2,4.7-9.8l-3.9-4.4-3.9,4c-4.9,5.4-6.4,10.7-1.3,14.7,8.5,6.6,18.3,1.4,20.1.3l-4.6-5.1Z"/>
              <path id="Bottom_Loop12" data-name="Bottom_Loop" class="st16" d="M170,204.3c-.6.4-1.1.6-1.5.8-3.9,1.7-7.2.2-8.3-.5-1.9-1.3-1.1-3,2.5-7l-2.5-4.3-2.1,1.3c-3.6,4.2-7.4,9.6-3.2,13.2,7.4,6.3,17.6,2.1,19.2,1.1l-4.1-4.6Z"/>
              <path id="Bottom_Loop13" data-name="Bottom_Loop" class="st14" d="M169.6,204.2c-.5.3-1,.6-1.4.8-3.5,1.6-6.6.2-7.6-.5-1.7-1.2-1-2.7,2.3-6.4l-2.8-3.1-1.6,1.8c-3.3,3.8-5.9,7.7-1.7,10.5,7,4.7,15.1,2,16.6,1.1l-3.8-4.2Z"/>
              <path class="st22" d="M152.4,186.6c-8.4,13.1-9.8,18.1-5.7,23,1.8,2.2,6.1,5,9.3,5.2,3.8.3,14.8-3.2,14-6.1s-1.4,0-9.1-2.4,4.8-11.6,4.8-11.6l-10.4-10.7s-2.4,1.7-3,2.6Z"/>
            </g>
            <path class="st16" d="M218.7,179c1.6-2.9,8.2-11.8,7.9-12,0,0-8,9.8-8,9.8l-.4-.3-3.6,2.9s2.9-3.5,2.8-3.6c0,0-3.6,2.9-3.6,2.9l2.8-3.6-11,11.7s7.8-9.2,7.7-9.2c0,0-8.6,8.6-8.6,8.6l10.5-12.2-3.5,3.4s2.8-4,2.7-4.1c0,0-8.4,9.1-8.4,9.1l7.7-9.7-.4-.3s5.8-7.6,6.4-9.6c-3.7,4-7.6,8.7-7.6,8.7l-.5-.4c-5.7,7.1-14.8,15-20.9,21-4.1,4.2-5,5.3-5,5.3-2.6,2.6-11.6,8.6-14.6,10.8l-1.2.6s-1.5.8-1.1.8c2.5-.2,4.3-1.3,4.3-1.3l.4.4s-2.9,1.7-4.7,2.4c-1.4.6,5.2-1.2,6-1.4-5.9,2.1-.2.4-.2.4l-1.9,1.6.5.6s-4.7,1.4-4.7,1.6,5.5-.9,5.5-.9c0,0-1.7.5-1.6.7s-.4,1,.9.8c2.1-.5,4.9-.8,4.9-.8,0,0-4.6,2.3-4.4,2.6s5-1.2,5-1.2l.5-.2-.6.9s-.8.7-.7.8,2.4-.5,2.4-.5l.4.4c8.7-5.2,35.1-31.2,35.1-31.2l5.3-6.2s4.3-6.8,4.1-7c0,0-7.3,7.6-6.9,6.9Z"/>
          </g>
          <g id="Flipped_Bootom_Loop" class="st28">
            <g class="st78">
              <g>
                <path id="Bottom_Loop14" data-name="Bottom_Loop" class="st24" d="M197.4,206.3c1.2.7,1.6.9,2.4,1.3,7.7,3.4,14.7.5,17-1.1,3.7-2.6,2.2-6-5.1-14.1l6.1-6.7,3.6,3.9c7.3,8.3,9.4,17.6.4,24.2-15,11-31,2.7-34.3.7l9.9-8.2Z"/>
                <g class="st81">
                  <path id="Bottom_Loop17" data-name="Bottom_Loop" class="st14" d="M194.3,203.9c1.2.7,4.9,3.4,5.8,3.8,7.7,3.4,14.5.5,16.7-1.1,3.7-2.6,2.2-6-5.1-14.1l6.1-6.7,3.6,3.9c7.3,8.3,9.4,17.6.4,24.2-15,11-29,4.4-36-.6l8.5-9.4Z"/>
                  <path id="Bottom_Loop18" data-name="Bottom_Loop" class="st16" d="M195.3,204.9c1.1.7,4.2,2.2,5,2.6,7.5,3.3,14,.5,16.2-1.1,3.6-2.5,1.5-6.5-5.6-14.3l6.8-6.3,4.2,4.5c7.1,8.1,8.1,16.9-.6,23.3-14.5,10.7-30.9,2.1-34.1.2l8-8.9Z"/>
                  <path id="Bottom_Loop19" data-name="Bottom_Loop" class="st14" d="M198,205.7c1.1.7,2,1.2,2.8,1.5,7.1,3.1,13.2.4,15.3-1,3.4-2.4,2-5.5-4.6-12.9l5-5.6s5.4,5.9,5.7,5.7-2.2-2.7-2.2-2.7l.9.9c6.7,7.6,8,15.2-.2,21.3-13.7,10.1-27.3,2.9-30.3,1.1l7.6-8.4Z"/>
                  <path id="Bottom_Loop20" data-name="Bottom_Loop" class="st16" d="M198.4,205.5c1,.6,1.9,1.1,2.7,1.5,6.8,3,12.6.4,14.6-1,3.3-2.3.5-6.7-5.8-13.7l5.3-5.9,4.6,4.8c7,8.3,8.3,15.7.5,21.4-13.1,9.6-26.2,2.6-29,.8l7.2-8Z"/>
                  <path id="Bottom_Loop21" data-name="Bottom_Loop" class="st14" d="M199.1,205.4c1,.6,1.8,1.1,2.5,1.4,6.3,2.8,11.8.4,13.6-.9,3-2.1,1.8-4.9-4.1-11.5l4.8-4.3s3.2,2.9,3.3,2.8-3.1-4-3.1-4l2.9,3.2c6.7,7.8,7.9,14.8.6,20.1-12.3,9-24.6,2.3-27.2.7l6.8-7.5Z"/>
                  <path id="Bottom_Loop22" data-name="Bottom_Loop" class="st16" d="M199.6,205.2c.9.6,1.7,1,2.4,1.3,6,2.7,11.2.4,12.9-.8,2.9-2,.4-5.9-5.2-12.2l4.7-5.2,4.1,4.3c6.4,7.5,7.6,14,.7,19.1-11.6,8.5-23.4,2.1-25.9.6l6.4-7.1Z"/>
                  <path id="Bottom_Loop23" data-name="Bottom_Loop" class="st14" d="M200.3,205c.8.5,1.6.9,2.2,1.2,5.5,2.5,10.3.3,11.9-.8,2.7-1.9,1.6-4.3-3.6-10.1l3.9-4.3s2.4,2.3,2.6,2.2-2.1-2.7-2.1-2.7l2.6,2.8c6.1,6.8,7.2,13.1.8,17.8-10.7,7.9-21.8,1.8-24.1.4l5.9-6.5Z"/>
                  <path id="Bottom_Loop24" data-name="Bottom_Loop" class="st16" d="M200.7,204.9c.8.5,1.5.9,2,1.1,5.2,2.3,9.7.3,11.2-.7,2.5-1.8,0-5.4-4.8-10.9l4.3-4.7,3.8,4c5.9,6.7,6.7,12.6.7,17-10,7.4-20.6,1.6-22.7.3l5.5-6.1Z"/>
                  <path id="Bottom_Loop25" data-name="Bottom_Loop" class="st14" d="M201.4,204.7c.7.4,1.3.8,1.9,1,4.7,2.1,8.8.3,10.2-.7,2.3-1.6,1.4-3.6-3.1-8.6,0,0,5.7-1.8,6.3-1.6,1.9,1.3-3.3-3.5-3.2-3.6s1.5,1,1.5,1l1.5,1.4c6.3,7.6,6.3,12.5.9,16.5-9.1,6.7-19,1.1-20.9,0l5-5.6Z"/>
                  <path id="Bottom_Loop26" data-name="Bottom_Loop" class="st16" d="M201.9,204.5c.7.4,1.2.7,1.7.9,4.3,1.9,8.1.3,9.4-.6,2.1-1.5-.6-5.2-4.7-9.8l3.9-4.4,3.9,4c4.9,5.4,6.4,10.7,1.3,14.7-8.5,6.6-18.3,1.4-20.1.3l4.6-5.1Z"/>
                  <path id="Bottom_Loop27" data-name="Bottom_Loop" class="st14" d="M202.6,204.3c.6.4,1.1.6,1.5.8,3.9,1.7,7.2.2,8.3-.5,1.9-1.3,1.1-3-2.5-7l2.5-4.3,2.5,2.2c3.6,4.2,7,8.6,2.8,12.2-7.4,6.3-17.6,2.1-19.2,1.1l4.1-4.6Z"/>
                  <path id="Bottom_Loop28" data-name="Bottom_Loop" class="st16" d="M203.1,204.2c.5.3,1,.6,1.4.8,3.5,1.6,6.6.2,7.6-.5,1.7-1.2,1-2.7-2.3-6.4l2.8-3.1,1.6,1.8c3.3,3.8,5.9,7.7,1.7,10.5-7,4.7-15.1,2-16.6,1.1l3.8-4.2Z"/>
                  <path class="st14" d="M218.3,199.5s-3-3.1-1.9-3.7,1.8,2.6,2.1,2.8.2-1.2.2-1.2c0,0,1.9,3.1,2.4,2.9s-1.2-3.3-.9-3.5c.4-.2-3.3-4.8-3.1-5s1.7,1.1,1.7,1.1c0,0,8,11,2,.4,1.3.6,3.3,5.3,3.3,5.3,0,0-2.4-6.2-1-4.1,1,0,2.4,3,2.9,3.5-.4-1.7-3.9-6.9-4.5-7.9s-4.3-5-4.3-5l-7.2,7.9,8.5,6.5Z"/>
                  <path class="st116" d="M199.1,212.3l.5-.6-1.9-1.6s5.7,1.7-.2-.4c.8.2,7.4,2,6,1.4-1.8-.7-4.7-2.4-4.7-2.4l.4-.3s1.9.9,4.4,1.1c.5,0-1.1-.8-1.1-.8l-2.2-1.1c-1-.6-1.7-1.6-3.2-2.5l-11.3,10.1c1.7,1.3,4.5.6,5.6,1.3l.4-.4s2.4.6,2.4.5c.1-.1-.7-.8-.7-.8l-.6-.9.5.2s4.7,1.5,5,1.2c.2-.3-4.4-2.6-4.4-2.6,0,0,2.8.4,4.9.8,1.3.3.9-.7.9-.8,0-.1-1.6-.7-1.6-.7,0,0,5.5,1.1,5.5.9,0-.2-4.7-1.6-4.7-1.6Z"/>
                </g>
              </g>
            </g>
          </g>
          <g class="st80">
            <path class="st23" d="M208.7,193.6c23.2,12.1-4.9,16.9.5,17.8s12.8.3,14-.7c2.8-2.2,4.3-7.3,4.4-9.2s-.3-5.3-.3-5.3l-9.6-11.6s-7.7,6.2-9,9.1Z"/>
          </g>
          <path id="Light_Bulb_Path" class="st83" d="M207.8,141.5c0-11.8-9.6-21.4-21.4-21.4s-21.4,9.6-21.4,21.4,8.8,20.6,19.9,21.4v27.8c0,.8.7,1.5,1.5,1.5s1.5-.7,1.5-1.5v-27.8c11.1-.8,19.9-10,19.9-21.4Z"/>
          <path id="Light_Bulb_Path1" data-name="Light_Bulb_Path" class="st53" d="M201.9,141.8c0-8.6-6.9-15.5-15.5-15.5s-15.5,6.9-15.5,15.5,7.5,14.9,15.5,15.5v19.5c0,.6,0,1.7,0,1.7,0,0,0-1.1,0-1.7v-19.5c8.1-.6,15.5-7.3,15.5-15.5Z"/>
          <g class="st95">
            <path class="st107" d="M207.8,141.5c0-11.8-9.6-21.4-21.4-21.4s-21.4,9.6-21.4,21.4,8.8,20.6,19.9,21.4v27.8c0,.8.7,1.5,1.5,1.5s1.5-.7,1.5-1.5v-27.8c11.1-.8,19.9-10,19.9-21.4Z"/>
            <path class="st58" d="M207.7,141.5c0-11.8-9.6-21.3-21.3-21.3s-21.3,9.6-21.3,21.3,8.8,20.5,19.9,21.3v27.7c0,.8.7,1.5,1.5,1.5s1.5-.7,1.5-1.5v-27.7c11.1-.8,19.9-10,19.9-21.3Z"/>
            <path class="st103" d="M207.6,141.5c0-11.7-9.5-21.2-21.2-21.2s-21.2,9.5-21.2,21.2,8.7,20.4,19.8,21.2v27.5c0,.8.7,1.5,1.5,1.5s1.5-.7,1.5-1.5v-27.5c11-.8,19.8-10,19.8-21.2Z"/>
            <path class="st90" d="M207.5,141.5c0-11.7-9.5-21.1-21.1-21.1s-21.1,9.5-21.1,21.1,8.7,20.3,19.7,21.1v27.4c0,.8.6,1.5,1.4,1.5s1.4-.7,1.4-1.5v-27.4c11-.8,19.7-9.9,19.7-21.1Z"/>
            <path class="st51" d="M207.4,141.5c0-11.6-9.4-21-21-21s-21,9.4-21,21,8.7,20.2,19.6,21v27.2c0,.8.6,1.5,1.4,1.5s1.4-.7,1.4-1.5v-27.2c10.9-.8,19.6-9.9,19.6-21Z"/>
            <path class="st86" d="M207.3,141.5c0-11.6-9.4-20.9-20.9-20.9s-20.9,9.4-20.9,20.9,8.7,20.1,19.6,20.9v27.1c0,.8.6,1.5,1.4,1.5s1.4-.7,1.4-1.5v-27.1c10.9-.8,19.6-9.8,19.6-20.9Z"/>
            <path class="st52" d="M207.2,141.5c0-11.5-9.3-20.9-20.9-20.9s-20.9,9.3-20.9,20.9,8.7,20,19.5,20.8v27c0,.8.6,1.5,1.4,1.5s1.4-.7,1.4-1.5v-27c10.8-.8,19.5-9.8,19.5-20.8Z"/>
            <path class="st96" d="M207.1,141.5c0-11.5-9.3-20.8-20.8-20.8s-20.8,9.3-20.8,20.8,8.6,20,19.4,20.7v26.8c0,.8.6,1.5,1.3,1.5s1.3-.7,1.3-1.5v-26.8c10.8-.7,19.4-9.7,19.4-20.7Z"/>
            <path class="st26" d="M207,141.5c0-11.4-9.2-20.7-20.7-20.7s-20.7,9.2-20.7,20.7,8.6,19.9,19.3,20.6v26.7c0,.8.6,1.5,1.3,1.5s1.3-.7,1.3-1.5v-26.7c10.7-.7,19.3-9.7,19.3-20.6Z"/>
            <path class="st91" d="M206.9,141.5c0-11.4-9.2-20.6-20.6-20.6s-20.6,9.2-20.6,20.6,8.6,19.8,19.3,20.5v26.6c0,.8.6,1.5,1.3,1.5s1.3-.7,1.3-1.5v-26.6c10.7-.7,19.3-9.6,19.3-20.5Z"/>
            <path class="st15" d="M206.8,141.5c0-11.3-9.2-20.5-20.5-20.5s-20.5,9.2-20.5,20.5,8.6,19.7,19.2,20.4v26.4c0,.8.6,1.5,1.3,1.5s1.3-.7,1.3-1.5v-26.4c10.6-.7,19.2-9.6,19.2-20.4Z"/>
            <path class="st89" d="M206.7,141.5c0-11.2-9.1-20.4-20.4-20.4s-20.4,9.1-20.4,20.4,8.6,19.6,19.1,20.3v26.3c0,.8.6,1.5,1.2,1.5s1.2-.7,1.2-1.5v-26.3c10.6-.7,19.1-9.6,19.1-20.3Z"/>
            <path class="st32" d="M206.6,141.6c0-11.2-9.1-20.3-20.3-20.3s-20.3,9.1-20.3,20.3,8.5,19.5,19.1,20.2v26.2c0,.8.5,1.5,1.2,1.5s1.2-.8,1.2-1.5v-26.2c10.5-.7,19.1-9.5,19.1-20.2Z"/>
            <path class="st94" d="M206.5,141.6c0-11.1-9-20.2-20.2-20.2s-20.2,9-20.2,20.2,8.5,19.4,19,20.1v26c0,.8.5,1.5,1.2,1.5s1.2-.8,1.2-1.5v-26c10.5-.7,19-9.5,19-20.1Z"/>
            <path class="st82" d="M206.5,141.6c0-11.1-9-20.1-20.1-20.1s-20.1,9-20.1,20.1,8.5,19.3,18.9,20v25.9c0,.8.5,1.5,1.2,1.5s1.2-.8,1.2-1.5v-25.9c10.4-.7,18.9-9.4,18.9-20Z"/>
            <path class="st87" d="M206.4,141.6c0-11-8.9-20-20-20s-20,8.9-20,20,8.5,19.2,18.8,19.9v25.8c0,.8.5,1.6,1.1,1.6s1.1-.8,1.1-1.6v-25.8c10.4-.7,18.8-9.4,18.8-19.9Z"/>
            <path class="st115" d="M206.3,141.6c0-11-8.9-19.9-19.9-19.9s-19.9,8.9-19.9,19.9,8.4,19.1,18.8,19.8v25.6c0,.8.5,1.6,1.1,1.6s1.1-.8,1.1-1.6v-25.6c10.3-.7,18.8-9.3,18.8-19.8Z"/>
            <path class="st75" d="M206.2,141.6c0-10.9-8.9-19.8-19.8-19.8s-19.8,8.9-19.8,19.8,8.4,19,18.7,19.7v25.5c0,.8.5,1.6,1.1,1.6s1.1-.8,1.1-1.6v-25.5c10.3-.7,18.7-9.3,18.7-19.7Z"/>
            <path class="st117" d="M206.1,141.6c0-10.9-8.8-19.7-19.7-19.7s-19.7,8.8-19.7,19.7,8.4,18.9,18.6,19.6v25.3c0,.8.5,1.6,1.1,1.6s1.1-.8,1.1-1.6v-25.3c10.2-.7,18.6-9.2,18.6-19.6Z"/>
            <path class="st27" d="M206,141.6c0-10.8-8.8-19.6-19.6-19.6s-19.6,8.8-19.6,19.6,8.4,18.8,18.6,19.6v25.2c0,.8.5,1.6,1,1.6s1-.8,1-1.6v-25.2c10.2-.7,18.6-9.2,18.6-19.6Z"/>
            <path class="st92" d="M205.9,141.6c0-10.8-8.7-19.5-19.5-19.5s-19.5,8.7-19.5,19.5,8.4,18.8,18.5,19.5v25.1c0,.8.5,1.6,1,1.6s1-.8,1-1.6v-25.1c10.1-.7,18.5-9.1,18.5-19.5Z"/>
            <path class="st112" d="M205.8,141.6c0-10.7-8.7-19.4-19.4-19.4s-19.4,8.7-19.4,19.4,8.3,18.7,18.4,19.4v24.9c0,.8.4,1.6,1,1.6s1-.8,1-1.6v-24.9c10.1-.7,18.4-9.1,18.4-19.4Z"/>
            <path class="st39" d="M205.7,141.6c0-10.7-8.6-19.3-19.3-19.3s-19.3,8.6-19.3,19.3,8.3,18.6,18.3,19.3v24.8c0,.7.4,1.6,1,1.6s1-.8,1-1.6v-24.8c10-.7,18.3-9.1,18.3-19.3Z"/>
            <path class="st30" d="M205.6,141.6c0-10.6-8.6-19.2-19.2-19.2s-19.2,8.6-19.2,19.2,8.3,18.5,18.3,19.2v24.7c0,.7.4,1.6.9,1.6s.9-.8.9-1.6v-24.7c10-.7,18.3-9,18.3-19.2Z"/>
            <path class="st105" d="M205.5,141.6c0-10.6-8.6-19.1-19.1-19.1s-19.1,8.6-19.1,19.1,8.3,18.4,18.2,19.1v24.5c0,.7.4,1.6.9,1.6s.9-.8.9-1.6v-24.5c9.9-.7,18.2-9,18.2-19.1Z"/>
            <path class="st50" d="M205.4,141.6c0-10.5-8.5-19-19-19s-19,8.5-19,19,8.2,18.3,18.1,19v24.4c0,.7.4,1.6.9,1.6s.9-.8.9-1.6v-24.4c9.9-.7,18.1-8.9,18.1-19Z"/>
            <path class="st56" d="M205.3,141.6c0-10.4-8.5-18.9-18.9-18.9s-18.9,8.5-18.9,18.9,8.2,18.2,18,18.9v24.3c0,.7.4,1.6.9,1.6s.9-.8.9-1.6v-24.3c9.8-.7,18-8.9,18-18.9Z"/>
            <path class="st84" d="M205.2,141.6c0-10.4-8.4-18.8-18.8-18.8s-18.8,8.4-18.8,18.8,8.2,18.1,18,18.8v24.1c0,.7.4,1.6.8,1.6s.8-.9.8-1.6v-24.1c9.8-.7,18-8.8,18-18.8Z"/>
            <path class="st12" d="M205.1,141.6c0-10.3-8.4-18.7-18.7-18.7s-18.7,8.4-18.7,18.7,8.2,18,17.9,18.7v24c0,.7.4,1.6.8,1.6s.8-.9.8-1.6v-24c9.7-.7,17.9-8.8,17.9-18.7Z"/>
            <path class="st100" d="M205,141.6c0-10.3-8.3-18.6-18.6-18.6s-18.6,8.3-18.6,18.6,8.2,17.9,17.8,18.6v23.8c0,.7.4,1.6.8,1.6s.8-.9.8-1.6v-23.8c9.7-.7,17.8-8.7,17.8-18.6Z"/>
            <path class="st42" d="M204.9,141.6c0-10.2-8.3-18.5-18.5-18.5s-18.5,8.3-18.5,18.5,8.1,17.8,17.8,18.5v23.7c0,.7.3,1.6.8,1.6s.8-.9.8-1.6v-23.7c9.6-.7,17.8-8.7,17.8-18.5Z"/>
            <path class="st110" d="M204.8,141.6c0-10.2-8.2-18.4-18.4-18.4s-18.4,8.2-18.4,18.4,8.1,17.7,17.7,18.4v23.6c0,.7.3,1.6.7,1.6s.7-.9.7-1.6v-23.6c9.6-.7,17.7-8.7,17.7-18.4Z"/>
            <path class="st65" d="M204.7,141.6c0-10.1-8.2-18.3-18.3-18.3s-18.3,8.2-18.3,18.3,8.1,17.6,17.6,18.3v23.4c0,.7.3,1.6.7,1.6s.7-.9.7-1.6v-23.4c9.5-.7,17.6-8.6,17.6-18.3Z"/>
            <path class="st57" d="M204.6,141.6c0-10.1-8.2-18.2-18.2-18.2s-18.2,8.2-18.2,18.2,8.1,17.5,17.5,18.2v23.3c0,.7.3,1.6.7,1.6s.7-.9.7-1.6v-23.3c9.5-.7,17.5-8.6,17.5-18.2Z"/>
            <path class="st113" d="M204.5,141.6c0-10-8.1-18.1-18.1-18.1s-18.1,8.1-18.1,18.1,8,17.5,17.5,18.1v23.2c0,.7.3,1.6.7,1.6s.7-.9.7-1.6v-23.2c9.4-.7,17.5-8.5,17.5-18.1Z"/>
            <path class="st111" d="M204.4,141.6c0-10-8.1-18-18-18s-18,8.1-18,18,8,17.4,17.4,18v23c0,.7.3,1.6.6,1.6s.6-.9.6-1.6v-23c9.4-.7,17.4-8.5,17.4-18Z"/>
            <path class="st64" d="M204.3,141.7c0-9.9-8-17.9-17.9-17.9s-17.9,8-17.9,17.9,8,17.3,17.3,17.9v22.9c0,.7.3,1.6.6,1.6s.6-.9.6-1.6v-22.9c9.3-.6,17.3-8.4,17.3-17.9Z"/>
            <path class="st108" d="M204.2,141.7c0-9.9-8-17.8-17.8-17.8s-17.8,8-17.8,17.8,8,17.2,17.3,17.8v22.8c0,.7.3,1.6.6,1.6s.6-.9.6-1.6v-22.8c9.3-.6,17.3-8.4,17.3-17.8Z"/>
            <path class="st67" d="M204.1,141.7c0-9.8-7.9-17.7-17.7-17.7s-17.7,7.9-17.7,17.7,8,17.1,17.2,17.7v22.6c0,.7.3,1.6.6,1.6s.6-.9.6-1.6v-22.6c9.2-.6,17.2-8.3,17.2-17.7Z"/>
            <path class="st54" d="M204,141.7c0-9.7-7.9-17.7-17.7-17.7s-17.7,7.9-17.7,17.7,7.9,17,17.1,17.6v22.5c0,.7.2,1.6.5,1.6s.5-.9.5-1.6v-22.5c9.2-.6,17.1-8.3,17.1-17.6Z"/>
            <path class="st66" d="M203.9,141.7c0-9.7-7.9-17.6-17.6-17.6s-17.6,7.9-17.6,17.6,7.9,16.9,17,17.5v22.4c0,.7.2,1.6.5,1.6s.5-.9.5-1.6v-22.4c9.1-.6,17-8.2,17-17.5Z"/>
            <path class="st97" d="M203.8,141.7c0-9.6-7.8-17.5-17.5-17.5s-17.5,7.8-17.5,17.5,7.9,16.8,17,17.4v22.2c0,.7.2,1.6.5,1.6s.5-1,.5-1.6v-22.2c9.1-.6,17-8.2,17-17.4Z"/>
            <path class="st101" d="M203.7,141.7c0-9.6-7.8-17.4-17.4-17.4s-17.4,7.8-17.4,17.4,7.9,16.7,16.9,17.3v22.1c0,.7.2,1.6.5,1.6s.5-1,.5-1.6v-22.1c9-.6,16.9-8.2,16.9-17.3Z"/>
            <path class="st31" d="M203.6,141.7c0-9.5-7.7-17.3-17.3-17.3s-17.3,7.7-17.3,17.3,7.9,16.6,16.8,17.2v21.9c0,.7.2,1.6.4,1.6s.4-1,.4-1.6v-21.9c9-.6,16.8-8.1,16.8-17.2Z"/>
            <path class="st104" d="M203.5,141.7c0-9.5-7.7-17.2-17.2-17.2s-17.2,7.7-17.2,17.2,7.8,16.5,16.7,17.1v21.8c0,.7.2,1.6.4,1.6s.4-1,.4-1.6v-21.8c8.9-.6,16.7-8.1,16.7-17.1Z"/>
            <path class="st40" d="M203.4,141.7c0-9.4-7.6-17.1-17.1-17.1s-17.1,7.6-17.1,17.1,7.8,16.4,16.7,17v21.7c0,.7.2,1.6.4,1.6s.4-1,.4-1.6v-21.7c8.9-.6,16.7-8,16.7-17Z"/>
            <path class="st61" d="M203.4,141.7c0-9.4-7.6-17-17-17s-17,7.6-17,17,7.8,16.3,16.6,17v21.5c0,.7.2,1.6.4,1.6s.4-1,.4-1.6v-21.5c8.8-.6,16.6-8,16.6-17Z"/>
            <path class="st63" d="M203.3,141.7c0-9.3-7.6-16.9-16.9-16.9s-16.9,7.6-16.9,16.9,7.8,16.2,16.5,16.9v21.4c0,.7.2,1.6.3,1.6s.3-1,.3-1.6v-21.4c8.8-.6,16.5-7.9,16.5-16.9Z"/>
            <path class="st106" d="M203.2,141.7c0-9.3-7.5-16.8-16.8-16.8s-16.8,7.5-16.8,16.8,7.7,16.2,16.5,16.8v21.3c0,.7.1,1.6.3,1.6s.3-1,.3-1.6v-21.3c8.7-.6,16.5-7.9,16.5-16.8Z"/>
            <path class="st38" d="M203.1,141.7c0-9.2-7.5-16.7-16.7-16.7s-16.7,7.5-16.7,16.7,7.7,16.1,16.4,16.7v21.1c0,.6.1,1.7.3,1.7s.3-1,.3-1.7v-21.1c8.7-.6,16.4-7.8,16.4-16.7Z"/>
            <path class="st98" d="M203,141.7c0-9.2-7.4-16.6-16.6-16.6s-16.6,7.4-16.6,16.6,7.7,16,16.3,16.6v21c0,.6.1,1.7.3,1.7s.3-1,.3-1.7v-21c8.6-.6,16.3-7.8,16.3-16.6Z"/>
            <path class="st13" d="M202.9,141.7c0-9.1-7.4-16.5-16.5-16.5s-16.5,7.4-16.5,16.5,7.7,15.9,16.2,16.5v20.9c0,.6.1,1.7.2,1.7s.2-1,.2-1.7v-20.9c8.6-.6,16.2-7.8,16.2-16.5Z"/>
            <path class="st85" d="M202.8,141.7c0-9.1-7.3-16.4-16.4-16.4s-16.4,7.3-16.4,16.4,7.7,15.8,16.2,16.4v20.7c0,.6,0,1.7.2,1.7s.2-1,.2-1.7v-20.7c8.5-.6,16.2-7.7,16.2-16.4Z"/>
            <path class="st25" d="M202.7,141.7c0-9-7.3-16.3-16.3-16.3s-16.3,7.3-16.3,16.3,7.6,15.7,16.1,16.3v20.6c0,.6,0,1.7.2,1.7s.2-1,.2-1.7v-20.6c8.5-.6,16.1-7.7,16.1-16.3Z"/>
            <path class="st93" d="M202.6,141.7c0-8.9-7.3-16.2-16.2-16.2s-16.2,7.3-16.2,16.2,7.6,15.6,16,16.2v20.4c0,.6,0,1.7.2,1.7s.2-1,.2-1.7v-20.4c8.4-.6,16-7.6,16-16.2Z"/>
            <path class="st62" d="M202.5,141.7c0-8.9-7.2-16.1-16.1-16.1s-16.1,7.2-16.1,16.1,7.6,15.5,16,16.1v20.3c0,.6,0,1.7.1,1.7s.1-1,.1-1.7v-20.3c8.4-.6,16-7.6,16-16.1Z"/>
            <path class="st109" d="M202.4,141.7c0-8.8-7.2-16-16-16s-16,7.2-16,16,7.6,15.4,15.9,16v20.2c0,.6,0,1.7.1,1.7s.1-1.1.1-1.7v-20.2c8.3-.6,15.9-7.5,15.9-16Z"/>
            <path class="st59" d="M202.3,141.7c0-8.8-7.1-15.9-15.9-15.9s-15.9,7.1-15.9,15.9,7.5,15.3,15.8,15.9v20c0,.6,0,1.7,0,1.7s0-1.1,0-1.7v-20c8.3-.6,15.8-7.5,15.8-15.9Z"/>
            <path class="st119" d="M202.2,141.7c0-8.7-7.1-15.8-15.8-15.8s-15.8,7.1-15.8,15.8,7.5,15.2,15.7,15.8v19.9c0,.6,0,1.7,0,1.7s0-1.1,0-1.7v-19.9c8.2-.6,15.7-7.4,15.7-15.8Z"/>
            <path class="st99" d="M202.1,141.7c0-8.7-7-15.7-15.7-15.7s-15.7,7-15.7,15.7,7.5,15.1,15.7,15.7v19.8c0,.6,0,1.7,0,1.7s0-1.1,0-1.7v-19.8c8.2-.6,15.7-7.4,15.7-15.7Z"/>
            <path class="st102" d="M202,141.8c0-8.6-7-15.6-15.6-15.6s-15.6,7-15.6,15.6,7.5,15,15.6,15.6v19.6c0,.6,0,1.7,0,1.7s0-1.1,0-1.7v-19.6c8.1-.6,15.6-7.3,15.6-15.6Z"/>
            <path class="st53" d="M201.9,141.8c0-8.6-6.9-15.5-15.5-15.5s-15.5,6.9-15.5,15.5,7.5,14.9,15.5,15.5v19.5c0,.6,0,1.7,0,1.7,0,0,0-1.1,0-1.7v-19.5c8.1-.6,15.5-7.3,15.5-15.5Z"/>
          </g>
          <circle class="st55" cx="186.3" cy="141" r="31.4"/>
        </g>
      </g>
      <g>
        <text class="st10" transform="translate(328 165.4)"><tspan class="st37" x="0" y="0">AI</tspan><tspan class="st41" x="13.6" y="0"> </tspan><tspan class="st37" x="19.1" y="0">Solutions</tspan><tspan class="st41" x="81.4" y="0"> </tspan><tspan class="st34" x="86.9" y="0">&amp;</tspan><tspan class="st41" x="96.5" y="0"> </tspan><tspan class="st37" x="102" y="0">Consultation</tspan></text>
        <text class="st4" transform="translate(328 193.4)"><tspan class="st37" x="0" y="0">Discover</tspan><tspan class="st41" x="46.8" y="0"> </tspan><tspan class="st37" x="51.3" y="0">·</tspan><tspan class="st41" x="54" y="0"> </tspan><tspan class="st37" x="58.4" y="0">Empower</tspan><tspan class="st41" x="110.5" y="0"> </tspan><tspan class="st36" x="114.9" y="0">·</tspan><tspan class="st41" x="117.6" y="0"> </tspan><tspan class="st37" x="122.1" y="0">Transform</tspan></text>
        <g id="luminAIt_Text_-_Serif" class="st29">
          <g>
            <g>
              <path class="st116" d="M330.8,133.5c-.6,0-1.1-.5-1.1-1.1v-17.2h-.4c-.6,0-1.1-.5-1.1-1.1v-2.5c0-.6.5-1.1,1.1-1.1h4c.6,0,1.1.5,1.1,1.1v20.8c0,.6-.5,1.1-1.1,1.1h-2.5Z"/>
              <path class="st16" d="M333.3,111.3c.2,0,.4.2.4.4v20.8c0,.2-.2.4-.4.4h-2.5c-.2,0-.4-.2-.4-.4v-17.9h-1.1c-.2,0-.4-.2-.4-.4v-2.5c0-.2.2-.4.4-.4h4M333.3,109.9h-4c-1,0-1.8.8-1.8,1.8v2.5c0,.9.6,1.6,1.5,1.8v16.5c0,1,.8,1.8,1.8,1.8h2.5c1,0,1.8-.8,1.8-1.8v-20.8c0-1-.8-1.8-1.8-1.8h0Z"/>
            </g>
            <g class="st2">
              <g class="st120">
                <path class="st83" d="M330.8,133.5c-.6,0-1.1-.5-1.1-1.1v-17.2h-.4c-.6,0-1.1-.5-1.1-1.1v-2.5c0-.6.5-1.1,1.1-1.1h4c.6,0,1.1.5,1.1,1.1v20.8c0,.6-.5,1.1-1.1,1.1h-2.5Z"/>
                <path class="st83" d="M333.3,111.3c.2,0,.4.2.4.4v20.8c0,.2-.2.4-.4.4h-2.5c-.2,0-.4-.2-.4-.4v-17.9h-1.1c-.2,0-.4-.2-.4-.4v-2.5c0-.2.2-.4.4-.4h4M333.3,109.9h-4c-1,0-1.8.8-1.8,1.8v2.5c0,.9.6,1.6,1.5,1.8v16.5c0,1,.8,1.8,1.8,1.8h2.5c1,0,1.8-.8,1.8-1.8v-20.8c0-1-.8-1.8-1.8-1.8h0Z"/>
              </g>
            </g>
          </g>
          <g>
            <g>
              <path class="st116" d="M344.8,133.9c-1.8,0-3.4-.5-4.6-1.4-.8-.6-1.3-1.3-1.7-2-.3-.7-.5-1.6-.5-2.9v-6.8c0-.6.5-1.1,1.1-1.1h2.5c.6,0,1.1.5,1.1,1.1v6.8c0,2.1,1,2.4,2.1,2.4s2.1-.3,2.1-2.4v-6.8c0-.6.5-1.1,1.1-1.1h2.5c.6,0,1.1.5,1.1,1.1v6.8c0,1.1-.2,2-.5,2.8-.3.8-.9,1.5-1.6,2-1.2.9-2.8,1.4-4.6,1.4Z"/>
              <path class="st16" d="M350.4,120.4c.2,0,.4.2.4.4v6.8c0,1-.1,1.9-.4,2.6-.3.6-.7,1.2-1.4,1.7-1.1.8-2.5,1.3-4.2,1.3s-3.1-.4-4.2-1.3c-.7-.5-1.2-1.1-1.4-1.7-.3-.6-.4-1.4-.4-2.6v-6.8c0-.2.2-.4.4-.4h2.5c.2,0,.4.2.4.4v6.8c0,2.1.9,3.1,2.8,3.1s2.8-1,2.8-3.1v-6.8c0-.2.2-.4.4-.4h2.5M350.4,119h-2.5c-1,0-1.8.8-1.8,1.8v6.8c0,1.5-.6,1.7-1.4,1.7s-1.4-.1-1.4-1.7v-6.8c0-1-.8-1.8-1.8-1.8h-2.5c-1,0-1.8.8-1.8,1.8v6.8c0,1.4.2,2.4.5,3.2.4.8,1,1.6,1.9,2.3,1.4,1,3.1,1.6,5.1,1.6s3.7-.5,5.1-1.6c.9-.7,1.5-1.5,1.9-2.3.4-.9.5-2,.5-3.1v-6.8c0-1-.8-1.8-1.8-1.8h0Z"/>
            </g>
            <g class="st74">
              <g class="st120">
                <path class="st83" d="M344.8,133.9c-1.8,0-3.4-.5-4.6-1.4-.8-.6-1.3-1.3-1.7-2-.3-.7-.5-1.6-.5-2.9v-6.8c0-.6.5-1.1,1.1-1.1h2.5c.6,0,1.1.5,1.1,1.1v6.8c0,2.1,1,2.4,2.1,2.4s2.1-.3,2.1-2.4v-6.8c0-.6.5-1.1,1.1-1.1h2.5c.6,0,1.1.5,1.1,1.1v6.8c0,1.1-.2,2-.5,2.8-.3.8-.9,1.5-1.6,2-1.2.9-2.8,1.4-4.6,1.4Z"/>
                <path class="st83" d="M350.4,120.4c.2,0,.4.2.4.4v6.8c0,1-.1,1.9-.4,2.6-.3.6-.7,1.2-1.4,1.7-1.1.8-2.5,1.3-4.2,1.3s-3.1-.4-4.2-1.3c-.7-.5-1.2-1.1-1.4-1.7-.3-.6-.4-1.4-.4-2.6v-6.8c0-.2.2-.4.4-.4h2.5c.2,0,.4.2.4.4v6.8c0,2.1.9,3.1,2.8,3.1s2.8-1,2.8-3.1v-6.8c0-.2.2-.4.4-.4h2.5M350.4,119h-2.5c-1,0-1.8.8-1.8,1.8v6.8c0,1.5-.6,1.7-1.4,1.7s-1.4-.1-1.4-1.7v-6.8c0-1-.8-1.8-1.8-1.8h-2.5c-1,0-1.8.8-1.8,1.8v6.8c0,1.4.2,2.4.5,3.2.4.8,1,1.6,1.9,2.3,1.4,1,3.1,1.6,5.1,1.6s3.7-.5,5.1-1.6c.9-.7,1.5-1.5,1.9-2.3.4-.9.5-2,.5-3.1v-6.8c0-1-.8-1.8-1.8-1.8h0Z"/>
              </g>
            </g>
          </g>
          <g>
            <g>
              <path class="st116" d="M372.3,133.5c-.6,0-1.1-.5-1.1-1.1v-6.5c0-1.4-.2-1.9-.4-2.1-.1-.2-.4-.4-1.1-.4s-1.2.3-1.4.6c-.2.3-.5,1-.5,2.5v6c0,.6-.5,1.1-1.1,1.1h-2.6c-.6,0-1.1-.5-1.1-1.1v-6.5c0-2.6-1-2.6-1.5-2.6-.9,0-1.2.3-1.4.6-.2.3-.5,1-.5,2.4v6c0,.6-.5,1.1-1.1,1.1h-2.5c-.6,0-1.1-.5-1.1-1.1v-11.7c0-.6.5-1.1,1.1-1.1h2.5c.4,0,.7.2.9.5.3-.2.5-.3.8-.5.6-.3,1.3-.4,2.1-.4,1.5,0,2.8.5,3.8,1.5,1.1-1,2.5-1.5,4.1-1.5,3.6,0,5.5,2,5.5,5.8v7.3c0,.6-.5,1.1-1.1,1.1h-2.6Z"/>
              <path class="st16" d="M370.4,120.1c3.2,0,4.8,1.7,4.8,5.1v7.3c0,.2-.2.4-.4.4h-2.6c-.2,0-.4-.2-.4-.4v-6.5c0-1.2-.2-2-.5-2.5-.3-.5-.9-.8-1.7-.8s-1.6.3-2,.9c-.4.6-.6,1.5-.6,2.9v6c0,.2-.2.4-.4.4h-2.6c-.2,0-.4-.2-.4-.4v-6.5c0-2.2-.7-3.3-2.2-3.3s-1.6.3-2,.9c-.4.6-.6,1.6-.6,2.9v6c0,.2-.2.4-.4.4h-2.5c-.2,0-.4-.2-.4-.4v-11.7c0-.2.2-.4.4-.4h2.5c.2,0,.4.2.4.4h0c0,.2.2.4.4.4s.2,0,.2,0c.4-.3.7-.5,1-.7.5-.2,1.1-.3,1.8-.3,1.5,0,2.6.5,3.5,1.5,0,0,.2.1.3.1s.2,0,.3-.1c1-1,2.3-1.5,3.9-1.5M370.4,118.7c-1.6,0-3,.4-4.1,1.3-1.1-.8-2.3-1.3-3.8-1.3s-1.7.1-2.4.4c-.1,0-.3.1-.4.2-.3-.2-.6-.3-1-.3h-2.5c-1,0-1.8.8-1.8,1.8v11.7c0,1,.8,1.8,1.8,1.8h2.5c1,0,1.8-.8,1.8-1.8v-6c0-1.4.3-1.9.4-2,0,0,.2-.3.8-.3s.8,0,.8,1.9v6.5c0,1,.8,1.8,1.8,1.8h2.6c1,0,1.8-.8,1.8-1.8v-6c0-1.4.3-1.9.4-2.1,0,0,.2-.3.8-.3s.4,0,.5.1c0,0,.3.4.3,1.7v6.5c0,1,.8,1.8,1.8,1.8h2.6c1,0,1.8-.8,1.8-1.8v-7.3c0-4.2-2.2-6.5-6.2-6.5h0Z"/>
            </g>
            <g class="st68">
              <g class="st120">
                <path class="st83" d="M372.3,133.5c-.6,0-1.1-.5-1.1-1.1v-6.5c0-1.4-.2-1.9-.4-2.1-.1-.2-.4-.4-1.1-.4s-1.2.3-1.4.6c-.2.3-.5,1-.5,2.5v6c0,.6-.5,1.1-1.1,1.1h-2.6c-.6,0-1.1-.5-1.1-1.1v-6.5c0-2.6-1-2.6-1.5-2.6-.9,0-1.2.3-1.4.6-.2.3-.5,1-.5,2.4v6c0,.6-.5,1.1-1.1,1.1h-2.5c-.6,0-1.1-.5-1.1-1.1v-11.7c0-.6.5-1.1,1.1-1.1h2.5c.4,0,.7.2.9.5.3-.2.5-.3.8-.5.6-.3,1.3-.4,2.1-.4,1.5,0,2.8.5,3.8,1.5,1.1-1,2.5-1.5,4.1-1.5,3.6,0,5.5,2,5.5,5.8v7.3c0,.6-.5,1.1-1.1,1.1h-2.6Z"/>
                <path class="st83" d="M370.4,120.1c3.2,0,4.8,1.7,4.8,5.1v7.3c0,.2-.2.4-.4.4h-2.6c-.2,0-.4-.2-.4-.4v-6.5c0-1.2-.2-2-.5-2.5-.3-.5-.9-.8-1.7-.8s-1.6.3-2,.9c-.4.6-.6,1.5-.6,2.9v6c0,.2-.2.4-.4.4h-2.6c-.2,0-.4-.2-.4-.4v-6.5c0-2.2-.7-3.3-2.2-3.3s-1.6.3-2,.9c-.4.6-.6,1.6-.6,2.9v6c0,.2-.2.4-.4.4h-2.5c-.2,0-.4-.2-.4-.4v-11.7c0-.2.2-.4.4-.4h2.5c.2,0,.4.2.4.4h0c0,.2.2.4.4.4s.2,0,.2,0c.4-.3.7-.5,1-.7.5-.2,1.1-.3,1.8-.3,1.5,0,2.6.5,3.5,1.5,0,0,.2.1.3.1s.2,0,.3-.1c1-1,2.3-1.5,3.9-1.5M370.4,118.7c-1.6,0-3,.4-4.1,1.3-1.1-.8-2.3-1.3-3.8-1.3s-1.7.1-2.4.4c-.1,0-.3.1-.4.2-.3-.2-.6-.3-1-.3h-2.5c-1,0-1.8.8-1.8,1.8v11.7c0,1,.8,1.8,1.8,1.8h2.5c1,0,1.8-.8,1.8-1.8v-6c0-1.4.3-1.9.4-2,0,0,.2-.3.8-.3s.8,0,.8,1.9v6.5c0,1,.8,1.8,1.8,1.8h2.6c1,0,1.8-.8,1.8-1.8v-6c0-1.4.3-1.9.4-2.1,0,0,.2-.3.8-.3s.4,0,.5.1c0,0,.3.4.3,1.7v6.5c0,1,.8,1.8,1.8,1.8h2.6c1,0,1.8-.8,1.8-1.8v-7.3c0-4.2-2.2-6.5-6.2-6.5h0Z"/>
              </g>
            </g>
          </g>
          <g>
            <g>
              <path class="st116" d="M380.6,133.5c-.6,0-1.1-.5-1.1-1.1v-11.7c0-.6.5-1.1,1.1-1.1h2.5c.6,0,1.1.5,1.1,1.1v11.7c0,.6-.5,1.1-1.1,1.1h-2.5ZM381.9,117.9c-.8,0-1.4-.2-2-.7-.6-.5-.9-1.1-.9-1.9s.3-1.3.9-1.8c.5-.5,1.2-.7,2-.7s1.4.2,2,.7c.6.5.9,1.1.9,1.8s-.3,1.4-.9,1.9c-.5.5-1.2.7-2,.7Z"/>
              <path class="st16" d="M381.8,113.4c.6,0,1.1.2,1.5.5.4.4.6.8.6,1.3s-.2,1-.6,1.3c-.4.4-.9.5-1.5.5s-1.1-.2-1.5-.5c-.4-.4-.6-.8-.6-1.3s.2-.9.6-1.3c.4-.4.9-.5,1.5-.5M383.1,120.4c.2,0,.4.2.4.4v11.7c0,.2-.2.4-.4.4h-2.5c-.2,0-.4-.2-.4-.4v-11.7c0-.2.2-.4.4-.4h2.5M381.8,112c-.9,0-1.8.3-2.4.9-.7.6-1.1,1.5-1.1,2.4s.4,1.8,1.1,2.4c.7.6,1.5.9,2.4.9s1.8-.3,2.4-.9c.7-.6,1.1-1.5,1.1-2.4s-.4-1.8-1.1-2.4c-.7-.6-1.5-.9-2.4-.9h0ZM383.1,119h-2.5c-1,0-1.8.8-1.8,1.8v11.7c0,1,.8,1.8,1.8,1.8h2.5c1,0,1.8-.8,1.8-1.8v-11.7c0-1-.8-1.8-1.8-1.8h0Z"/>
            </g>
            <g class="st69">
              <g class="st120">
                <path class="st83" d="M380.6,133.5c-.6,0-1.1-.5-1.1-1.1v-11.7c0-.6.5-1.1,1.1-1.1h2.5c.6,0,1.1.5,1.1,1.1v11.7c0,.6-.5,1.1-1.1,1.1h-2.5ZM381.9,117.9c-.8,0-1.4-.2-2-.7-.6-.5-.9-1.1-.9-1.9s.3-1.3.9-1.8c.5-.5,1.2-.7,2-.7s1.4.2,2,.7c.6.5.9,1.1.9,1.8s-.3,1.4-.9,1.9c-.5.5-1.2.7-2,.7Z"/>
                <path class="st83" d="M381.8,113.4c.6,0,1.1.2,1.5.5.4.4.6.8.6,1.3s-.2,1-.6,1.3c-.4.4-.9.5-1.5.5s-1.1-.2-1.5-.5c-.4-.4-.6-.8-.6-1.3s.2-.9.6-1.3c.4-.4.9-.5,1.5-.5M383.1,120.4c.2,0,.4.2.4.4v11.7c0,.2-.2.4-.4.4h-2.5c-.2,0-.4-.2-.4-.4v-11.7c0-.2.2-.4.4-.4h2.5M381.8,112c-.9,0-1.8.3-2.4.9-.7.6-1.1,1.5-1.1,2.4s.4,1.8,1.1,2.4c.7.6,1.5.9,2.4.9s1.8-.3,2.4-.9c.7-.6,1.1-1.5,1.1-2.4s-.4-1.8-1.1-2.4c-.7-.6-1.5-.9-2.4-.9h0ZM383.1,119h-2.5c-1,0-1.8.8-1.8,1.8v11.7c0,1,.8,1.8,1.8,1.8h2.5c1,0,1.8-.8,1.8-1.8v-11.7c0-1-.8-1.8-1.8-1.8h0Z"/>
              </g>
            </g>
          </g>
          <g>
            <g>
              <path class="st116" d="M397.8,133.5c-.6,0-1.1-.5-1.1-1.1v-6.6c0-1.4-.3-1.9-.4-2.1-.3-.4-1-.5-1.5-.5-.9,0-1.4.2-1.7.6-.2.3-.5,1.1-.5,2.8v5.6c0,.6-.5,1.1-1.1,1.1h-2.6c-.6,0-1.1-.5-1.1-1.1v-11.7c0-.6.5-1.1,1.1-1.1h2.6c.4,0,.8.2.9.6,1-.6,2.1-.9,3.3-.9,1.8,0,3.3.5,4.3,1.6.9.9,1.4,2.3,1.4,4.3v7.2c0,.6-.5,1.1-1.1,1.1h-2.6Z"/>
              <path class="st16" d="M395.7,120.1c1.6,0,2.9.5,3.8,1.4.8.8,1.2,2,1.2,3.8v7.2c0,.2-.2.4-.4.4h-2.6c-.2,0-.4-.2-.4-.4v-6.6c0-1.2-.2-2.1-.6-2.5-.4-.5-1.1-.7-2.1-.7s-1.9.3-2.3.9c-.4.6-.7,1.7-.7,3.2v5.6c0,.2-.2.4-.4.4h-2.6c-.2,0-.4-.2-.4-.4v-11.7c0-.2.2-.4.4-.4h2.6c.2,0,.4.2.4.4h0c0,.3.2.4.4.4s.1,0,.2,0c1-.7,2.1-1,3.3-1M395.7,118.7c-1.1,0-2.2.2-3.1.7-.3-.2-.7-.4-1.1-.4h-2.6c-1,0-1.8.8-1.8,1.8v11.7c0,1,.8,1.8,1.8,1.8h2.6c1,0,1.8-.8,1.8-1.8v-5.6c0-1.7.3-2.3.4-2.4.2-.2.6-.4,1.2-.4s.9.1,1,.2c0,0,.3.3.3,1.7v6.6c0,1,.8,1.8,1.8,1.8h2.6c1,0,1.8-.8,1.8-1.8v-7.2c0-2.1-.5-3.8-1.6-4.8-1.2-1.2-2.8-1.8-4.8-1.8h0Z"/>
            </g>
            <g class="st70">
              <g class="st120">
                <path class="st83" d="M397.8,133.5c-.6,0-1.1-.5-1.1-1.1v-6.6c0-1.4-.3-1.9-.4-2.1-.3-.4-1-.5-1.5-.5-.9,0-1.4.2-1.7.6-.2.3-.5,1.1-.5,2.8v5.6c0,.6-.5,1.1-1.1,1.1h-2.6c-.6,0-1.1-.5-1.1-1.1v-11.7c0-.6.5-1.1,1.1-1.1h2.6c.4,0,.8.2.9.6,1-.6,2.1-.9,3.3-.9,1.8,0,3.3.5,4.3,1.6.9.9,1.4,2.3,1.4,4.3v7.2c0,.6-.5,1.1-1.1,1.1h-2.6Z"/>
                <path class="st83" d="M395.7,120.1c1.6,0,2.9.5,3.8,1.4.8.8,1.2,2,1.2,3.8v7.2c0,.2-.2.4-.4.4h-2.6c-.2,0-.4-.2-.4-.4v-6.6c0-1.2-.2-2.1-.6-2.5-.4-.5-1.1-.7-2.1-.7s-1.9.3-2.3.9c-.4.6-.7,1.7-.7,3.2v5.6c0,.2-.2.4-.4.4h-2.6c-.2,0-.4-.2-.4-.4v-11.7c0-.2.2-.4.4-.4h2.6c.2,0,.4.2.4.4h0c0,.3.2.4.4.4s.1,0,.2,0c1-.7,2.1-1,3.3-1M395.7,118.7c-1.1,0-2.2.2-3.1.7-.3-.2-.7-.4-1.1-.4h-2.6c-1,0-1.8.8-1.8,1.8v11.7c0,1,.8,1.8,1.8,1.8h2.6c1,0,1.8-.8,1.8-1.8v-5.6c0-1.7.3-2.3.4-2.4.2-.2.6-.4,1.2-.4s.9.1,1,.2c0,0,.3.3.3,1.7v6.6c0,1,.8,1.8,1.8,1.8h2.6c1,0,1.8-.8,1.8-1.8v-7.2c0-2.1-.5-3.8-1.6-4.8-1.2-1.2-2.8-1.8-4.8-1.8h0Z"/>
              </g>
            </g>
          </g>
          <g>
            <g>
              <path class="st88" d="M422.1,133.5c-.4,0-.8-.2-1-.6l-2.1-4.2h-8.7l-2.2,4.2c-.2.4-.5.6-.9.6h-2.8c-.4,0-.7-.2-.9-.5-.2-.3-.2-.7,0-1.1l10.5-19.8c.2-.4.5-.6.9-.6s.8.2,1,.6l10.1,19.8c.2.3.2.7,0,1s-.5.5-.9.5h-2.9ZM417,124.5l-2.2-4.4-2.3,4.4h4.5Z"/>
              <path class="st16" d="M414.8,112.3c.1,0,.3,0,.3.2l10.1,19.8c.1.2,0,.5-.3.5h-2.9c-.1,0-.3,0-.3-.2l-2.2-4.4c0-.1-.2-.2-.3-.2h-9.1c-.1,0-.3,0-.3.2l-2.3,4.4c0,.1-.2.2-.3.2h-2.8c-.3,0-.4-.3-.3-.5l10.5-19.8c0-.1.2-.2.3-.2M411.9,125.3h5.6c.3,0,.4-.3.3-.5l-2.7-5.5c0-.1-.2-.2-.3-.2s-.3,0-.3.2l-2.9,5.5c-.1.2,0,.5.3.5M414.8,110.9c-.7,0-1.3.4-1.6.9l-10.5,19.8c-.3.6-.3,1.2,0,1.7.3.5.9.9,1.5.9h2.8c.7,0,1.3-.4,1.6-1l2-3.8h7.9l1.9,3.8c.3.6.9,1,1.6,1h2.9c.6,0,1.2-.3,1.5-.9.3-.5.4-1.2,0-1.7l-10.1-19.8c-.3-.6-.9-1-1.6-1h0ZM413.6,123.8l1.1-2.1,1.1,2.1h-2.2Z"/>
            </g>
            <g class="st71">
              <g class="st120">
                <path class="st83" d="M422.1,133.5c-.4,0-.8-.2-1-.6l-2.1-4.2h-8.7l-2.2,4.2c-.2.4-.5.6-.9.6h-2.8c-.4,0-.7-.2-.9-.5-.2-.3-.2-.7,0-1.1l10.5-19.8c.2-.4.5-.6.9-.6s.8.2,1,.6l10.1,19.8c.2.3.2.7,0,1s-.5.5-.9.5h-2.9ZM417,124.5l-2.2-4.4-2.3,4.4h4.5Z"/>
                <path class="st83" d="M414.8,112.3c.1,0,.3,0,.3.2l10.1,19.8c.1.2,0,.5-.3.5h-2.9c-.1,0-.3,0-.3-.2l-2.2-4.4c0-.1-.2-.2-.3-.2h-9.1c-.1,0-.3,0-.3.2l-2.3,4.4c0,.1-.2.2-.3.2h-2.8c-.3,0-.4-.3-.3-.5l10.5-19.8c0-.1.2-.2.3-.2M411.9,125.3h5.6c.3,0,.4-.3.3-.5l-2.7-5.5c0-.1-.2-.2-.3-.2s-.3,0-.3.2l-2.9,5.5c-.1.2,0,.5.3.5M414.8,110.9c-.7,0-1.3.4-1.6.9l-10.5,19.8c-.3.6-.3,1.2,0,1.7.3.5.9.9,1.5.9h2.8c.7,0,1.3-.4,1.6-1l2-3.8h7.9l1.9,3.8c.3.6.9,1,1.6,1h2.9c.6,0,1.2-.3,1.5-.9.3-.5.4-1.2,0-1.7l-10.1-19.8c-.3-.6-.9-1-1.6-1h0ZM413.6,123.8l1.1-2.1,1.1,2.1h-2.2Z"/>
              </g>
            </g>
          </g>
          <g>
            <g>
              <path class="st88" d="M429,133.5c-.6,0-1.1-.5-1.1-1.1v-2.5c0-.4.2-.8.6-.9v-12.8c-.3-.2-.6-.5-.6-.9v-2.5c0-.6.5-1.1,1.1-1.1h3.8c.6,0,1.1.5,1.1,1.1v2.5c0,.4-.2.8-.6,1v12.7c.1,0,.2.1.3.2.2.2.3.5.3.8v2.5c0,.6-.5,1.1-1.1,1.1h-3.8Z"/>
              <path class="st16" d="M432.9,112.4c.2,0,.4.2.4.4v2.5c0,.2-.2.4-.4.4h-.2v13.9h.2c.2,0,.4.2.4.4v2.5c0,.2-.2.4-.4.4h-3.8c-.2,0-.4-.2-.4-.4v-2.6c0-.2.2-.4.4-.4h.2s0-13.9,0-13.9h-.2c-.2,0-.4-.2-.4-.4v-2.5c0-.2.2-.4.4-.4h3.8M432.9,110.9h-3.8c-1,0-1.8.8-1.8,1.8v2.5c0,.5.2,1,.6,1.3v12.1c-.3.3-.6.8-.6,1.3v2.6c0,1,.8,1.8,1.8,1.8h3.8c1,0,1.8-.8,1.8-1.8v-2.6c0-.5-.2-.9-.5-1.3,0,0,0,0,0,0v-12c.4-.3.6-.8.6-1.3v-2.5c0-1-.8-1.8-1.8-1.8h0Z"/>
            </g>
            <g class="st73">
              <g class="st120">
                <path class="st83" d="M429,133.5c-.6,0-1.1-.5-1.1-1.1v-2.5c0-.4.2-.8.6-.9v-12.8c-.3-.2-.6-.5-.6-.9v-2.5c0-.6.5-1.1,1.1-1.1h3.8c.6,0,1.1.5,1.1,1.1v2.5c0,.4-.2.8-.6,1v12.7c.1,0,.2.1.3.2.2.2.3.5.3.8v2.5c0,.6-.5,1.1-1.1,1.1h-3.8Z"/>
                <path class="st83" d="M432.9,112.4c.2,0,.4.2.4.4v2.5c0,.2-.2.4-.4.4h-.2v13.9h.2c.2,0,.4.2.4.4v2.5c0,.2-.2.4-.4.4h-3.8c-.2,0-.4-.2-.4-.4v-2.6c0-.2.2-.4.4-.4h.2s0-13.9,0-13.9h-.2c-.2,0-.4-.2-.4-.4v-2.5c0-.2.2-.4.4-.4h3.8M432.9,110.9h-3.8c-1,0-1.8.8-1.8,1.8v2.5c0,.5.2,1,.6,1.3v12.1c-.3.3-.6.8-.6,1.3v2.6c0,1,.8,1.8,1.8,1.8h3.8c1,0,1.8-.8,1.8-1.8v-2.6c0-.5-.2-.9-.5-1.3,0,0,0,0,0,0v-12c.4-.3.6-.8.6-1.3v-2.5c0-1-.8-1.8-1.8-1.8h0Z"/>
              </g>
            </g>
          </g>
          <g>
            <g>
              <path class="st116" d="M438.7,133.5c-.6,0-1.1-.5-1.1-1.1v-8.7h-.3c-.6,0-1.1-.5-1.1-1.1v-2c0-.6.5-1.1,1.1-1.1h.3v-3.5c0-.6.5-1.1,1.1-1.1h2.5c.6,0,1.1.5,1.1,1.1v3.5h1.5c.6,0,1.1.5,1.1,1.1v2c0,.6-.5,1.1-1.1,1.1h-1.5v5.1c.4,0,.7.4.7.8v3c0,.5-.4.9-.9.9h-3.4Z"/>
              <path class="st16" d="M441.3,115.9c.2,0,.4.2.4.4v3.8c0,.2.2.4.4.4h1.8c.2,0,.4.2.4.4v2c0,.2-.2.4-.4.4h-1.8c-.2,0-.4.2-.4.4v5.7c0,.2.2.4.4.4h.2c0,0,.1,0,.1.1v3c0,0,0,.2-.2.2h-3.4c-.2,0-.4-.2-.4-.4v-9c0-.2-.2-.4-.4-.4h-.7c-.2,0-.4-.2-.4-.4v-2c0-.2.2-.4.4-.4h.7c.2,0,.4-.2.4-.4v-3.8c0-.2.2-.4.4-.4h2.5M441.3,114.5h-2.5c-1,0-1.8.8-1.8,1.8v2.8c-.8.2-1.4.9-1.4,1.7v2c0,.8.6,1.6,1.4,1.7v8c0,1,.8,1.8,1.8,1.8h3.4c.9,0,1.6-.7,1.6-1.6v-3c0-.5-.3-1-.7-1.3v-3.9h.8c1,0,1.8-.8,1.8-1.8v-2c0-1-.8-1.8-1.8-1.8h-.8v-2.8c0-1-.8-1.8-1.8-1.8h0Z"/>
            </g>
            <g class="st72">
              <g class="st120">
                <path class="st83" d="M438.7,133.5c-.6,0-1.1-.5-1.1-1.1v-8.7h-.3c-.6,0-1.1-.5-1.1-1.1v-2c0-.6.5-1.1,1.1-1.1h.3v-3.5c0-.6.5-1.1,1.1-1.1h2.5c.6,0,1.1.5,1.1,1.1v3.5h1.5c.6,0,1.1.5,1.1,1.1v2c0,.6-.5,1.1-1.1,1.1h-1.5v5.1c.4,0,.7.4.7.8v3c0,.5-.4.9-.9.9h-3.4Z"/>
                <path class="st83" d="M441.3,115.9c.2,0,.4.2.4.4v3.8c0,.2.2.4.4.4h1.8c.2,0,.4.2.4.4v2c0,.2-.2.4-.4.4h-1.8c-.2,0-.4.2-.4.4v5.7c0,.2.2.4.4.4h.2c0,0,.1,0,.1.1v3c0,0,0,.2-.2.2h-3.4c-.2,0-.4-.2-.4-.4v-9c0-.2-.2-.4-.4-.4h-.7c-.2,0-.4-.2-.4-.4v-2c0-.2.2-.4.4-.4h.7c.2,0,.4-.2.4-.4v-3.8c0-.2.2-.4.4-.4h2.5M441.3,114.5h-2.5c-1,0-1.8.8-1.8,1.8v2.8c-.8.2-1.4.9-1.4,1.7v2c0,.8.6,1.6,1.4,1.7v8c0,1,.8,1.8,1.8,1.8h3.4c.9,0,1.6-.7,1.6-1.6v-3c0-.5-.3-1-.7-1.3v-3.9h.8c1,0,1.8-.8,1.8-1.8v-2c0-1-.8-1.8-1.8-1.8h-.8v-2.8c0-1-.8-1.8-1.8-1.8h0Z"/>
              </g>
            </g>
          </g>
        </g>
      </g>
    </g>
  </g>
</svg>